<svg xmlns="http://www.w3.org/2000/svg" width="49" height="48" fill="none"><path fill="#050506" fill-rule="evenodd" d="M24.066 0c13.208 0 23.947 10.738 23.947 24.054C48.013 37.262 37.274 48 24.066 48 10.751 48 .013 37.262.013 24.054.013 10.738 10.75 0 24.066 0M13.758 31.356V20.725H10.32v-1.61c1.182 0 2.148-.216 2.792-.645.645-.537 1.074-1.181 1.182-2.255h1.396v15.14zm19.221-8.161V20.08h1.61v3.114h3.222v1.61H34.59v3.114h-1.61v-3.114h-3.115v-1.61zm-12.993 3.758c0 .966.215 1.718.752 2.148.644.537 1.288.859 2.255.859s1.718-.322 2.255-.86c.537-.536.859-1.18.859-2.147 0-.859-.322-1.503-.86-1.933-.536-.537-1.288-.751-2.254-.751q-1.45 0-2.255.644c-.537.537-.752 1.181-.752 2.04m.43-6.658c0 .752.214 1.289.751 1.718.43.43 1.074.645 1.826.645.859 0 1.396-.215 1.932-.645.43-.43.752-.966.752-1.718 0-.751-.322-1.288-.752-1.718q-.644-.644-1.932-.644-1.128 0-1.933.644c-.43.43-.645.967-.645 1.718m0 3.007c-.752-.322-1.182-.752-1.504-1.289a3.7 3.7 0 0 1-.537-1.933c0-1.073.43-2.04 1.289-2.791.859-.645 1.933-1.074 3.329-1.074s2.577.43 3.436 1.074c.859.751 1.288 1.718 1.288 2.791 0 .752-.214 1.397-.537 1.933-.322.537-.859.967-1.503 1.289.86.322 1.503.752 1.933 1.396.322.644.537 1.396.537 2.362 0 1.396-.43 2.578-1.396 3.437-.86.859-2.148 1.288-3.758 1.288-1.504 0-2.792-.43-3.759-1.288-.859-.86-1.396-2.04-1.396-3.437 0-.966.215-1.718.645-2.362.429-.644 1.073-1.074 1.932-1.396m3.65-21.476c12.242 0 22.229 9.879 22.229 22.228 0 12.241-9.987 22.228-22.229 22.228-12.349 0-22.228-9.987-22.228-22.228A22.136 22.136 0 0 1 24.066 1.826" clip-rule="evenodd"/></svg>