<svg xmlns="http://www.w3.org/2000/svg" width="120" height="120" fill="none"><g clip-path="url(#a)"><path fill="#050506" d="M119.095 23.075V13.068a8.19 8.19 0 0 0-8.188-8.188 8.18 8.18 0 0 0-8.188 8.188v10.007z"/><path fill="#050506" d="M119.095 23.955h-16.376a.886.886 0 0 1-.88-.88V13.068c0-4.997 4.071-9.068 9.068-9.068s9.068 4.07 9.068 9.068v10.007c0 .48-.399.88-.88.88m-15.496-1.76h14.617v-9.127c0-4.024-3.273-7.308-7.309-7.308a7.31 7.31 0 0 0-7.308 7.308z"/><path fill="#050506" d="M102.718 115a.82.82 0 0 1-.574-.223l-5.631-4.927-5.643 4.927a.88.88 0 0 1-1.161 0l-5.643-4.927-5.643 4.927a.88.88 0 0 1-1.161 0l-5.643-4.927-5.642 4.927a.88.88 0 0 1-1.162 0l-5.642-4.927-5.643 4.927a.88.88 0 0 1-1.162 0l-5.642-4.927-5.655 4.927a.88.88 0 0 1-1.161 0l-5.654-4.927-5.655 4.927a.875.875 0 0 1-1.455-.657v-12.188c0-.481.4-.88.88-.88.481 0 .88.399.88.88v10.264l4.775-4.153a.86.86 0 0 1 1.15 0l5.654 4.928 5.654-4.928a.88.88 0 0 1 1.162 0l5.642 4.928 5.643-4.928a.88.88 0 0 1 1.161 0l5.643 4.928 5.643-4.928a.88.88 0 0 1 1.161 0l5.643 4.928 5.642-4.928a.88.88 0 0 1 1.162 0l5.642 4.928 5.643-4.928a.88.88 0 0 1 1.162 0l4.751 4.153V13.068a9.05 9.05 0 0 1 3.707-7.308h-69.32c-4.023 0-7.308 3.273-7.308 7.308v26.149c0 .48-.399.88-.88.88a.886.886 0 0 1-.88-.88V13.068c0-4.997 4.07-9.068 9.068-9.068h74.681c.481 0 .88.399.88.88 0 .48-.399.88-.88.88-4.024 0-7.309 3.273-7.309 7.308V114.12c0 .34-.199.657-.516.798a1 1 0 0 1-.364.082"/><path fill="#050506" d="M94.202 14.851H68.124a.886.886 0 0 1-.88-.88c0-.48.399-.88.88-.88h26.078c.481 0 .88.4.88.88 0 .481-.399.88-.88.88M59.044 14.851H51.03a.886.886 0 0 1-.88-.88c0-.48.4-.88.88-.88h8.013c.48 0 .88.4.88.88 0 .481-.4.88-.88.88M94.202 23.955H38.515a.886.886 0 0 1-.88-.88c0-.481.399-.88.88-.88h55.687c.481 0 .88.399.88.88 0 .48-.399.88-.88.88M28.038 97.45c-12.857 0-23.321-10.452-23.321-23.31S15.18 50.83 28.038 50.83s23.31 10.465 23.31 23.31c0 12.846-10.464 23.31-23.31 23.31m0-44.872c-11.883 0-21.562 9.667-21.562 21.55s9.667 21.55 21.562 21.55 21.55-9.666 21.55-21.55c0-11.883-9.666-21.55-21.55-21.55M19.897 49.118a.89.89 0 0 1-.845-.622.89.89 0 0 1 .575-1.102 28 28 0 0 1 8.411-1.291c.481 0 .88.399.88.88 0 .48-.399.88-.88.88-2.686 0-5.35.41-7.883 1.208a1 1 0 0 1-.258.035z"/><path fill="#050506" d="M.904 75.009a.886.886 0 0 1-.88-.88 28.07 28.07 0 0 1 14.3-24.436.883.883 0 0 1 1.197.34.873.873 0 0 1-.34 1.197C6.911 55.875 1.772 64.662 1.772 74.129c0 .48-.399.88-.88.88z"/><path fill="#E6FF99" d="m28.039 58.15 3.8 11.685h12.283l-9.936 7.227 3.8 11.684-9.947-7.227-9.937 7.227 3.801-11.684-9.948-7.227H24.25z"/><path fill="#050506" d="M52.381 53.33a.88.88 0 0 1-.692-.34.866.866 0 0 1 .153-1.233l13.314-10.452a.866.866 0 0 1 1.232.153.866.866 0 0 1-.152 1.231L52.92 53.142a.86.86 0 0 1-.54.187M46.023 51.617a.7.7 0 0 1-.306-.059.877.877 0 0 1-.516-1.126l5.925-15.86a.87.87 0 0 1 1.126-.517c.457.164.692.68.516 1.126l-5.924 15.86a.88.88 0 0 1-.822.576M52.534 59.91a.866.866 0 0 1-.868-.774.88.88 0 0 1 .774-.973l16.81-1.995a.897.897 0 0 1 .974.775.88.88 0 0 1-.774.973l-16.81 1.995z"/></g><defs><clipPath id="a"><path fill="#fff" d="M.024 4h119.951v111H.025z"/></clipPath></defs></svg>