<svg xmlns="http://www.w3.org/2000/svg" width="120" height="120" fill="none"><g clip-path="url(#a)"><path fill="#050506" d="M101.305 103h-76.45a.914.914 0 0 1-.908-.907V74.242c0-.496.412-.907.908-.907s.907.411.907.907v26.943h75.543c3.871 0 7.029-3.157 7.029-7.029v-64.63c0-1.96-1.597-3.569-3.557-3.569H29.319a3.565 3.565 0 0 0-3.557 3.57v15.679a.914.914 0 0 1-.907.907.914.914 0 0 1-.908-.907v-15.68c0-2.964 2.408-5.384 5.372-5.384h75.446a5.38 5.38 0 0 1 5.372 5.384v64.63c0 4.876-3.969 8.844-8.844 8.844z"/><path fill="#050506" d="M41.127 31.885a7.94 7.94 0 0 1-7.937-7.936c0-4.38 3.557-7.949 7.937-7.949a7.94 7.94 0 0 1 7.937 7.937.914.914 0 0 1-.908.907.914.914 0 0 1-.907-.907 6.13 6.13 0 0 0-6.122-6.122 6.13 6.13 0 0 0-6.122 6.122 6.13 6.13 0 0 0 6.122 6.121c.496 0 .907.412.907.908a.914.914 0 0 1-.907.907zM66.05 31.885a7.94 7.94 0 0 1-7.937-7.936 7.94 7.94 0 0 1 7.937-7.937 7.94 7.94 0 0 1 7.937 7.937.914.914 0 0 1-.908.907.914.914 0 0 1-.907-.907 6.13 6.13 0 0 0-6.122-6.122 6.13 6.13 0 0 0-6.122 6.122 6.13 6.13 0 0 0 6.122 6.122c.496 0 .907.411.907.907a.914.914 0 0 1-.907.907M90.973 31.885a7.94 7.94 0 0 1-7.937-7.936 7.94 7.94 0 0 1 7.937-7.937 7.94 7.94 0 0 1 7.936 7.937.914.914 0 0 1-.907.907.914.914 0 0 1-.907-.907 6.13 6.13 0 0 0-6.122-6.122 6.13 6.13 0 0 0-6.122 6.122 6.13 6.13 0 0 0 6.122 6.122c.496 0 .907.411.907.907a.914.914 0 0 1-.907.907M83.496 39.507H73.09a.914.914 0 0 1-.907-.907c0-.496.41-.907.907-.907h10.405c.496 0 .907.411.907.907a.914.914 0 0 1-.907.907M66.05 39.507H24.855a.914.914 0 0 1-.908-.907c0-.496.412-.907.908-.907h41.207c.496 0 .907.411.907.907a.914.914 0 0 1-.907.907zM93.368 94.156V88.35H10.772v5.807a7.94 7.94 0 0 0 7.936 7.937h82.596a7.94 7.94 0 0 1-7.936-7.937"/><path fill="#050506" d="M101.304 103H18.708c-4.875 0-8.844-3.968-8.844-8.844v-5.807c0-.496.412-.908.908-.908h82.596c.496 0 .907.412.907.908v5.807c0 3.872 3.158 7.029 7.029 7.029.496 0 .908.412.908.908a.914.914 0 0 1-.908.907M11.679 89.256v4.9c0 3.872 3.158 7.029 7.03 7.029h77.236c-2.117-1.62-3.485-4.162-3.485-7.029v-4.9z"/><path fill="#E6FF99" d="m24.854 49.985 2.856 8.795h9.243l-7.477 5.432 2.855 8.784-7.477-5.432-7.476 5.432 2.855-8.784-7.477-5.432h9.243zM59.02 49.985l2.856 8.795h9.243l-7.477 5.432 2.855 8.784-7.477-5.432-7.477 5.432 2.856-8.784-7.477-5.432h9.243zM93.186 49.985l2.856 8.795h9.243l-7.477 5.432 2.855 8.784-7.477-5.432-7.477 5.432 2.856-8.784-7.477-5.432h9.243z"/></g><defs><clipPath id="a"><path fill="#fff" d="M9.864 16h100.272v87H9.864z"/></clipPath></defs></svg>