<svg xmlns="http://www.w3.org/2000/svg" width="120" height="120" fill="none"><g clip-path="url(#a)"><path fill="#050506" d="M60.04 101a.87.87 0 0 1-.865-.865V57.55c0-.473.392-.866.865-.866.474 0 .866.393.866.866v42.585a.87.87 0 0 1-.866.865M49.123 101a.87.87 0 0 1-.865-.865V69.09c0-.473.392-.865.865-.865.474 0 .866.392.866.865v31.045a.87.87 0 0 1-.866.865"/><path fill="#050506" d="M48.903 58.415H81.24a.87.87 0 0 0 .866-.865.87.87 0 0 0-.866-.866H49.215a27 27 0 0 1-.312 1.731M93.15 65.963a.87.87 0 0 0-.865.865V99.27H16.879V75.83c-.589-.22-1.166-.45-1.732-.704v25.009c0 .473.393.865.866.865H93.15a.87.87 0 0 0 .866-.865V66.828a.87.87 0 0 0-.866-.865"/><path fill="#050506" d="M25.211 78.184c-13.872 0-25.17-11.298-25.17-25.17 0-13.871 11.298-25.181 25.17-25.181s25.17 11.298 25.17 25.17-11.298 25.17-25.17 25.17zm0-48.62c-12.925 0-23.439 10.525-23.439 23.45 0 12.926 10.514 23.44 23.44 23.44 12.924 0 23.438-10.514 23.438-23.44 0-12.925-10.513-23.439-23.439-23.439z"/><path fill="#050506" d="M5.777 57.054a.866.866 0 0 1-.854-.728 21 21 0 0 1-.266-3.312c0-5.493 2.135-10.652 6.024-14.53a20.44 20.44 0 0 1 14.53-6.024c.473 0 .866.393.866.866a.87.87 0 0 1-.866.865 18.7 18.7 0 0 0-13.306 5.517 18.7 18.7 0 0 0-5.517 13.306c0 1.016.081 2.043.243 3.035a.86.86 0 0 1-.716.993h-.138zM11.293 67.798a.86.86 0 0 1-.611-.254 20.7 20.7 0 0 1-3.416-4.512.87.87 0 0 1 .334-1.177.87.87 0 0 1 1.177.334 18.8 18.8 0 0 0 3.128 4.132.87.87 0 0 1 0 1.223.86.86 0 0 1-.612.254"/><path fill="#E6FF99" d="m25.211 38.116 3.405 10.455h10.998l-8.898 6.474 3.405 10.456-8.91-6.462-8.897 6.462 3.404-10.456-8.91-6.474h11.01z"/><path fill="#050506" d="M83.757 44.947c-7.386 0-22.043-2.85-25.574-9.948-1.466-2.943-.83-6.185 1.858-9.636 2.69-3.45 5.678-4.847 8.898-4.166 7.86 1.696 14.299 15.614 15.984 22.677.057.254 0 .53-.162.739a.85.85 0 0 1-.67.334zM67.392 22.755c-2.088 0-4.096 1.223-5.99 3.658-2.25 2.885-2.803 5.517-1.672 7.813 2.896 5.828 15.856 8.771 23.22 8.967-2.009-7.097-8.022-18.938-14.392-20.311a6 6 0 0 0-1.166-.127"/><path fill="#050506" d="M117.79 71.19a5.28 5.28 0 0 0-1.996-3.52l-7.813-6.081a.86.86 0 0 0-1.212.15l-.069-.058s-.07.104-.116.162c-9.89 12.706-20.761-8.09-23.243-17.773-10.155-.15-32.382-5.608-22.596-18.188.185-.242.37-.438.554-.658 0 0-.012-.023-.023-.034l-7.813-6.082c-1.12-.866-2.504-1.258-3.9-1.073a5.28 5.28 0 0 0-3.52 1.996l-4.882 6.267a.86.86 0 0 0 .15 1.212l69.335 53.986a.87.87 0 0 0 .531.185h.104a.86.86 0 0 0 .577-.323l4.882-6.278a5.28 5.28 0 0 0 1.073-3.9z"/><path fill="#050506" d="M100.814 67.129c-.519 0-1.05-.058-1.58-.174-7.86-1.696-14.3-15.614-15.985-22.677a.9.9 0 0 1 .162-.739.85.85 0 0 1 .67-.334c7.281-.093 22.33 2.735 25.908 9.948 1.466 2.943.831 6.186-1.858 9.636-2.239 2.885-4.697 4.328-7.317 4.328zM85.211 44.947c2.008 7.098 8.021 18.939 14.391 20.312 2.505.542 4.917-.646 7.156-3.532 2.25-2.885 2.804-5.516 1.673-7.812-2.897-5.828-15.857-8.771-23.22-8.968"/><path fill="#050506" d="M112.008 52.056a.88.88 0 0 1-.865-.82.864.864 0 0 1 .808-.91c3.104-.185 5.77-2.967 6.209-6.487.577-4.604-2.597-8.493-8.494-10.386-9.014-2.885-16.826 2.677-21.2 6.936 4.57-2.135 11.863-3.97 19.93-.046a.87.87 0 0 1 .404 1.154.87.87 0 0 1-1.154.404c-12.44-6.06-22.573 2.47-23 2.827a.86.86 0 0 1-1.143-.011.867.867 0 0 1-.127-1.143c.116-.162 11.83-16.584 26.832-11.771 7.952 2.55 10.214 7.997 9.683 12.244-.554 4.397-3.843 7.755-7.825 7.986h-.046z"/></g><defs><clipPath id="a"><path fill="#fff" d="M.041 18h119.918v83H.041z"/></clipPath></defs></svg>