<svg width="170" height="64" viewBox="0 0 170 64" fill="none" xmlns="http://www.w3.org/2000/svg">
<path d="M35.892 3.75879C35.6905 1.43312 34.003 0 31.5346 0C31.3331 0 31.0687 0 30.7412 0.062856C28.7137 0.301709 27.1521 1.68454 26.2957 4.02279C25.6535 5.69476 25.5905 7.31644 25.5905 7.49244L25.5275 8.54842C25.2379 9.01355 24.9986 9.54154 24.8475 10.0695C24.4067 11.5655 23.8778 14.0043 23.8148 17.0843L23.7896 17.9014C23.3488 18.4922 22.9962 19.1585 22.6688 19.9002C22.291 20.8053 21.9635 21.7482 21.6739 22.9802L21.4724 18.6305C21.4472 16.9208 20.1753 6.29817 19.1426 2.67767C18.7018 1.18169 17.3165 0.263995 15.4905 0.263995C14.6089 0.263995 13.6644 0.465135 12.871 0.791986C8.81591 2.58967 9.13075 7.78157 9.98711 10.5724L10.2768 11.5404C10.2516 11.8044 10.2138 12.0684 10.2138 12.3324C10.2768 14.0923 10.6546 15.89 11.5361 19.2968L11.8006 20.3276C11.5991 20.8556 11.4731 21.4088 11.448 21.9996C11.385 23.4076 11.448 24.8784 11.5613 26.3744C11.4102 26.3115 11.2716 26.2864 11.1205 26.2864C11.0324 26.2612 10.9694 26.2612 10.919 26.2612C10.6798 26.2361 10.4783 26.1984 10.3019 26.1984H9.79821C9.79821 26.1984 9.59671 26.2235 9.4204 26.2235C9.26928 26.2487 9.15594 26.2864 9.09297 26.2864C8.94185 26.3115 8.74035 26.3744 8.50107 26.4624C8.14845 26.5755 7.8588 26.7264 7.59434 26.9024L7.53137 26.9275L7.50618 26.9527H7.481L7.45581 26.9778C6.54908 27.6818 5.60456 28.4989 5.18898 29.5926C4.89932 30.3846 4.83636 31.2646 5.01267 32.2954H4.77339C4.00518 32.2954 3.24957 32.4966 2.50656 32.9114C1.73835 33.2885 1.33536 33.8543 0.944958 34.3445L0.793836 34.5205C-0.641826 36.3685 0.113785 39.0084 0.793836 40.8061L0.819023 40.8313C0.819023 40.8313 0.84421 40.8941 0.84421 40.9193C0.869397 41.0324 0.932365 41.1833 0.995332 41.2964L0.907178 42.7924C0.819023 44.0495 1.34795 45.558 2.028 47.406C2.20431 47.8711 2.38062 48.3991 2.44359 48.638C3.23698 51.8688 4.59708 54.3956 6.44833 56.1807L6.5113 63.9371H30.376L29.2048 55.6276L29.1796 55.3384C30.7664 53.1385 31.9124 50.0208 32.5673 46.2872C33.537 40.5296 33.0962 33.98 31.3583 28.7503C31.648 27.1035 32.1265 24.8156 32.6555 22.3767V22.2887C32.9199 20.9939 33.2096 19.6739 33.4488 18.442C33.5622 17.8888 33.6503 17.3231 33.7763 16.77C33.8896 16.242 33.9778 15.714 34.1037 15.1483C34.1919 14.6203 34.28 14.0923 34.3934 13.5643C34.5445 12.6592 34.7208 11.6284 34.9223 10.5095C35.0986 9.54154 35.2497 8.5987 35.3882 7.74386L35.4134 7.59301C35.5646 6.80102 35.6779 6.09703 35.7661 5.50619C35.829 5.26733 35.8542 5.0662 35.8542 4.86506C35.8794 4.6262 35.9172 4.36221 35.9172 4.13593C35.892 3.98507 35.892 3.84679 35.892 3.69593V3.75879ZM34.8971 4.85248C34.8971 5.02848 34.8719 5.20448 34.8341 5.40562C34.7208 6.04675 34.5697 6.81359 34.4185 7.66843C34.3052 8.52328 34.1289 9.4284 33.9526 10.3964C33.8015 11.3895 33.6 12.3952 33.4237 13.4512C33.3355 13.9792 33.2222 14.5072 33.134 15.0352C33.0207 15.5883 32.9325 16.1163 32.8066 16.6568C32.7184 17.21 32.6051 17.738 32.4791 18.3037C32.2399 19.5608 31.9502 20.9185 31.6858 22.2385C31.1568 24.7904 30.6531 27.2292 30.3634 28.9012C32.1013 34.0177 32.5673 40.4416 31.5976 46.174C30.9553 49.9957 29.7463 53.0756 28.1596 55.1624L28.2477 55.8413L29.2804 63.0697H27.9581L26.9002 56.0173C26.0439 56.5704 25.1371 56.9224 24.3059 57.1613C24.1926 57.1864 24.0667 57.2241 23.9785 57.2493C24.0667 57.2241 24.1548 57.1864 24.243 57.1361C27.3662 55.791 29.57 50.6997 30.3382 44.6529C30.4264 44.1878 30.4516 43.6849 30.5146 43.1821C30.5397 42.9432 30.5397 42.7421 30.5775 42.5032C30.6027 42.0004 30.6405 41.4724 30.6657 40.9444V40.9193C30.779 36.8713 30.2501 32.6348 28.953 28.9892C29.1922 27.5812 29.633 25.5195 30.0738 23.2944C30.099 23.1436 30.1367 23.0304 30.1619 22.9173C30.2501 22.4145 30.3634 21.9242 30.4516 21.4213C30.5397 21.0442 30.6279 20.6545 30.6909 20.2774C30.8672 19.5105 31.0183 18.7814 31.1568 18.0774C31.245 17.5243 31.3583 16.9586 31.4843 16.4306V16.2797C31.5976 15.8146 31.6858 15.3117 31.7739 14.8089C31.8621 14.2809 31.9754 13.7529 32.0636 13.2249C32.1265 12.9609 32.1517 12.7221 32.2147 12.4581C32.2399 12.1941 32.3028 11.9301 32.328 11.6912C32.391 11.4021 32.4414 11.1381 32.4791 10.8741C32.5421 10.6352 32.5673 10.4341 32.5925 10.1952C32.6806 9.75525 32.7688 9.31526 32.8318 8.90041C32.9199 8.37242 33.0081 7.84443 33.0962 7.3793C33.2473 6.56217 33.3607 5.82047 33.474 5.20448V5.09134C33.4992 4.9782 33.4992 4.85248 33.537 4.73934V4.50049C33.537 4.41249 33.5622 4.32449 33.5622 4.2365C33.5622 4.21135 33.537 4.17364 33.537 4.1485V3.9725C33.474 3.24337 33.1214 2.53938 32.0636 2.35082H32.0006C31.8495 2.32567 31.7109 2.32567 31.5346 2.32567H31.0309C29.8219 2.50167 29.0537 3.44451 28.6129 4.47535C28.55 4.58849 28.5248 4.7142 28.4618 4.82734C28.3988 4.9782 28.3485 5.11648 28.3107 5.29248C28.2477 5.44333 28.2225 5.58161 28.1596 5.73247C28.0966 5.97132 28.0714 6.17246 28.0462 6.3736C28.021 6.4616 28.021 6.52446 27.9833 6.61245C27.9833 6.70045 27.9581 6.81359 27.9581 6.90159C27.9329 7.01473 27.9329 7.14044 27.8951 7.22844V7.42958C27.8951 7.42958 27.8951 7.51758 27.8699 7.54272V7.56786C27.9581 7.56786 28.021 7.54272 28.0714 7.50501C28.1596 7.50501 28.2477 7.47987 28.3611 7.44215C28.5122 7.41701 28.6885 7.3793 28.8648 7.35415C28.9278 7.35415 28.953 7.35415 29.0411 7.32901H29.1041C29.3685 7.30387 29.6078 7.30387 29.8723 7.30387H30.2879C30.376 7.30387 30.4642 7.32901 30.5523 7.32901V7.79415H30.5271C28.8774 7.99529 27.5299 9.13927 27.0891 10.6981C26.9758 11.0501 26.8876 11.4272 26.7617 11.8672C26.7617 11.9804 26.7365 12.1061 26.6987 12.2192C26.4972 13.1621 26.3209 14.306 26.195 15.6009C26.1698 16.1037 26.132 16.594 26.1068 17.1597C26.3713 16.9837 26.6987 16.8706 27.0513 16.7826H27.1143C27.2276 16.7197 27.3536 16.6946 27.4921 16.6694C27.6684 16.6443 27.8447 16.6066 28.021 16.5814C28.2603 16.5563 28.487 16.5563 28.7011 16.5186H28.8522C28.9404 16.5186 29.0537 16.4934 29.1419 16.4934V17.0466H29.0537C29.0537 17.0466 28.8774 17.0717 28.7641 17.1094C28.6129 17.1346 28.4744 17.1723 28.2603 17.2225C27.8825 17.3734 27.4921 17.5117 27.1773 17.7505C26.8498 17.9517 26.535 18.1905 26.2705 18.4545C25.8298 18.8694 25.4771 19.3974 25.2127 19.9505C25.1497 20.0385 25.1245 20.1265 25.0616 20.2145C25.0616 20.2774 25.0364 20.3025 24.9986 20.3654C24.9356 20.4785 24.8852 20.6293 24.8223 20.7802C24.7341 20.9813 24.646 21.2202 24.5578 21.459C24.4948 21.6099 24.4445 21.7482 24.4067 21.899C24.3815 21.987 24.3437 22.075 24.3185 22.163C24.2934 22.2259 24.2556 22.3139 24.2556 22.3642C24.1926 22.4773 24.1674 22.6282 24.1422 22.779C24.117 22.867 24.0793 22.9299 24.0793 23.0179C24.0163 23.1687 23.9911 23.307 23.9659 23.4579C23.903 23.6087 23.8778 23.747 23.8526 23.8979C23.8526 23.923 23.8274 23.9607 23.8274 23.9859C23.7644 24.2247 23.7392 24.4258 23.6763 24.6647C23.6511 24.7778 23.6133 24.9287 23.5881 25.0796C23.5629 25.2555 23.5251 25.4064 23.4748 25.6075C23.4748 25.6955 23.4496 25.8087 23.4118 25.8967C23.3237 26.4247 23.2103 27.0155 23.0844 27.6566C22.6688 27.9458 22.291 28.2978 21.9132 28.6498C21.9132 28.6498 21.888 28.6498 21.888 28.6749C21.7117 28.8258 21.5102 29.0269 21.3339 29.2029C20.5405 29.9949 19.8352 30.7869 19.3945 31.3526C19.0419 31.7297 18.8655 31.9937 18.8655 31.9937L18.7522 31.9686L18.3114 31.8177C18.5129 31.5286 18.6892 31.2017 18.8655 30.9126C19.3063 30.1457 19.6589 29.5298 19.6589 29.5298L19.13 18.6934V18.3665C19.13 18.2785 19.1048 18.2157 19.1048 18.1277C19.1048 17.9768 19.0796 17.8385 19.0796 17.6625C18.9285 16.1414 18.6137 13.1998 18.1981 10.2958C18.1729 10.1198 18.1351 9.94382 18.1099 9.76783C18.0847 9.61697 18.0847 9.50383 18.047 9.39069C18.0218 9.18955 17.984 9.01355 17.9588 8.83756C17.9588 8.72442 17.9336 8.5987 17.8958 8.46042C17.8707 8.28442 17.8707 8.13357 17.8329 7.95757C17.8077 7.93243 17.8077 7.89472 17.8077 7.86957C17.7825 7.69358 17.7447 7.51758 17.7195 7.34158C17.6566 6.92673 17.6062 6.57474 17.5432 6.1976C17.518 6.04675 17.4803 5.87075 17.4551 5.73247C17.3921 5.55647 17.3669 5.35533 17.3417 5.17934C17.3165 5.11648 17.3165 5.02848 17.2788 4.94048C17.2788 4.85248 17.2536 4.76449 17.2158 4.67649C17.1906 4.52563 17.1528 4.41249 17.1276 4.26164C17.1024 4.11078 17.0647 3.99764 17.0395 3.84679C17.0143 3.73365 16.9765 3.60794 16.9513 3.49479C16.9261 3.43194 16.9261 3.38165 16.8884 3.3188C16.8884 3.25594 16.8632 3.20566 16.8254 3.1428C16.6743 2.90395 16.4728 2.76567 16.1831 2.67767C15.9816 2.61481 15.7423 2.58967 15.5031 2.58967C15.1505 2.58967 14.7349 2.65252 14.42 2.74052C14.2185 2.80338 14.0044 2.85366 13.8659 2.94166C12.4303 3.55765 11.9265 5.00334 11.8384 6.3736C11.8132 6.57474 11.8132 6.78845 11.8132 6.96445C11.8132 7.3793 11.8384 7.75643 11.9013 8.10843C11.9013 8.28442 11.9265 8.43528 11.9643 8.57356V8.63642C12.0273 8.92555 12.0776 9.18955 12.1154 9.40326C12.1406 9.5164 12.1784 9.64211 12.2036 9.73011C12.2288 9.79297 12.2288 9.84325 12.2665 9.90611V9.96896H12.2917C12.4428 9.85582 12.6192 9.76783 12.7955 9.64211C13.4755 9.29012 14.2941 9.02612 15.3016 9.02612H15.3897L15.3645 9.31526L15.3394 9.57926C14.9238 9.57926 14.5208 9.66726 14.1304 9.84325C14.0674 9.90611 14.017 9.93125 13.9541 9.95639C13.8029 10.0444 13.6896 10.1072 13.6014 10.2204C13.2488 10.4844 12.9844 10.8364 12.8081 11.2512C12.6947 11.6032 12.6066 11.9552 12.6317 12.3324C12.6317 13.0615 12.7451 13.8535 12.9214 14.8592C13.0347 15.362 13.1607 15.9151 13.2992 16.5688C13.3622 16.7448 13.3874 16.946 13.4503 17.1597C13.5637 17.6625 13.7148 18.1905 13.8659 18.7814C14.5712 18.4922 15.4527 18.3162 16.0698 18.1905C16.4854 18.1277 16.775 18.1025 16.8632 18.1025L16.9765 18.7437C16.9765 18.7437 16.9513 18.7688 16.9135 18.7688H16.8884C16.8002 18.7688 16.7372 18.7939 16.6491 18.7939C16.6491 18.8191 16.6239 18.8191 16.5861 18.8191C15.969 18.9699 15.4401 19.2591 14.9993 19.6362C14.9993 19.6362 14.9909 19.6446 14.9741 19.6614C14.9741 19.6614 14.9112 19.7494 14.8608 19.7745C14.8356 19.8374 14.7978 19.8625 14.7726 19.8876L14.7475 19.9128C14.2185 20.5288 13.8911 21.2579 13.8659 22.0876V22.1127C13.8659 22.2259 13.8659 22.3516 13.8407 22.4647V24.3127C13.8659 24.4007 13.8659 24.4887 13.8659 24.6018V24.891C13.8659 24.979 13.8911 25.0921 13.8911 25.1801V25.4693C13.9163 25.5573 13.9163 25.6453 13.9163 25.7333C13.9163 25.8464 13.9415 25.9344 13.9415 26.0224C13.9415 26.1104 13.9415 26.2235 13.9667 26.3115C13.9667 26.3995 13.9667 26.4875 13.9918 26.6007C13.9918 26.6635 13.9918 26.7515 14.017 26.8395C14.017 26.9275 14.017 27.0155 14.0422 27.1035C14.0422 27.1915 14.0422 27.2795 14.0674 27.3675C14.0674 27.4555 14.0674 27.5435 14.0926 27.6064C14.0926 27.6944 14.0926 27.7824 14.1178 27.8704C14.1178 27.9584 14.143 28.0212 14.143 28.1092C14.143 28.1972 14.1682 28.2852 14.1682 28.3481C14.1933 28.4361 14.1933 28.4989 14.1933 28.5869C14.2185 28.6498 14.2185 28.7378 14.2563 28.8258C14.2563 28.9138 14.2815 29.0269 14.3193 29.1149V29.228C14.4074 29.6429 14.4704 30.02 14.5586 30.3469L14.4074 30.2589L14.1682 30.108C13.9289 29.9572 13.7526 29.844 13.5511 29.6932C13.5259 29.6932 13.4881 29.6932 13.4881 29.668C13.4 29.6429 13.337 29.58 13.2866 29.5549C13.2614 29.5549 13.2614 29.5298 13.2236 29.5298C13.2236 29.5298 13.1103 29.4669 13.0725 29.4418C12.9214 29.3789 12.8081 29.2909 12.6947 29.2406C12.5814 29.1778 12.4554 29.1275 12.3421 29.0646C12.3169 29.0395 12.2539 29.0395 12.2288 29.0395C11.9895 28.9263 11.725 28.8006 11.4983 28.7503C11.4983 28.7252 11.4731 28.7252 11.4731 28.7252C11.448 28.7252 11.4102 28.7252 11.385 28.7001C11.1457 28.6372 10.9442 28.5869 10.7427 28.5492H10.6546C10.5034 28.5241 10.3649 28.4863 10.239 28.4863H10.0627C10.0627 28.4863 9.9997 28.5115 9.97451 28.5115H9.77302C9.77302 28.5115 9.65968 28.5366 9.59671 28.5366C9.50855 28.5618 9.4204 28.5618 9.33224 28.6246C9.24409 28.6498 9.18112 28.6875 9.09297 28.7126C9.03 28.7378 8.97963 28.7755 8.89147 28.8258C8.77813 28.9138 8.62701 29.0269 8.47589 29.1526C8.36254 29.2406 8.23661 29.3286 8.14845 29.4418C7.79584 29.7309 7.53137 30.0829 7.38025 30.4097C7.22913 30.8246 7.20394 31.3777 7.31728 31.9937C7.34247 32.1069 7.38025 32.2326 7.40544 32.3457C7.43062 32.5468 7.51878 32.7857 7.58175 33.0497C7.64471 33.1628 7.6699 33.2885 7.69509 33.4017C7.78324 33.6657 7.89658 33.9297 8.02252 34.1937C8.17364 34.6085 8.37514 35.0485 8.57663 35.4885C8.6396 35.6394 8.72776 35.7776 8.77813 35.9536C8.86628 35.9285 8.95444 35.8908 9.04259 35.8908C9.24409 35.8279 9.45818 35.8028 9.65968 35.7399H9.68486C9.68486 35.7399 9.77302 35.7399 9.83599 35.7148C9.92414 35.7148 10.0123 35.6896 10.1005 35.6896C10.2768 35.6645 10.4531 35.6268 10.6546 35.6017H10.7175C10.982 35.5388 11.2465 35.5388 11.5361 35.5136H12.4428C12.4428 35.5136 12.6821 35.5388 12.7073 35.5388C12.9718 35.5639 13.2614 35.5639 13.5637 35.6268H13.6518C13.6518 35.6268 13.677 35.6268 13.7148 35.6519C14.0674 35.6771 14.42 35.7399 14.7978 35.8279C14.7978 35.8279 14.5586 34.156 13.6266 32.6851C13.6014 32.6223 13.5385 32.572 13.5133 32.5091L13.6266 32.484L14.1304 32.396C14.2437 32.484 14.3319 32.572 14.42 32.66C14.5712 32.836 14.7097 33.012 14.8608 33.188C14.9238 33.276 15.0119 33.364 15.0623 33.452C15.1253 33.54 15.1505 33.6028 15.2134 33.6908C15.2386 33.7537 15.3016 33.7788 15.3268 33.8417C16.1202 35.0737 16.5357 36.2176 16.5357 36.2176C16.8254 36.2428 17.1528 36.2805 17.4803 36.3308C18.0973 36.4439 18.7144 36.5948 19.3315 36.7959C19.596 36.8839 19.8604 36.9719 20.1249 37.0599L27.5425 40.0896L27.5173 40.5044L27.4921 40.8564L22.3665 39.0964L19.7219 38.1913C19.7219 38.1913 19.6967 38.1662 19.6589 38.1662C19.3315 38.0153 18.9789 37.9022 18.6263 37.789C18.45 37.7639 18.2736 37.701 18.0973 37.6759V37.6508C17.9462 37.6256 17.7699 37.5879 17.5684 37.5628C17.5054 37.5628 17.4551 37.5628 17.3921 37.5376C17.3291 37.5376 17.2788 37.5376 17.2158 37.5125C17.1024 37.5125 16.9765 37.4873 16.8632 37.4873C16.8002 37.4873 16.712 37.4622 16.6239 37.4622C16.5609 37.4622 16.4728 37.437 16.4224 37.437C16.2713 37.4119 16.1327 37.4119 15.9816 37.3742C15.8305 37.349 15.692 37.3113 15.5157 37.3113C15.3645 37.2862 15.226 37.2485 15.0497 37.2233C14.4578 37.1353 13.8407 37.0222 13.2488 36.9342C12.7829 36.8462 12.3421 36.7833 11.8635 36.7582H11.045C10.2768 36.8211 9.6093 36.9593 9.04259 37.1982C8.89147 37.261 8.75294 37.349 8.62701 37.3993C8.51367 37.4873 8.38773 37.5502 8.29958 37.6382C7.59434 38.1662 7.21653 38.933 7.26691 39.7879C7.29209 40.1399 7.38025 40.4918 7.53137 40.8438L10.7679 41.0198C10.7679 40.9318 10.7931 40.8438 10.7931 40.7558C10.7931 40.6678 10.8183 40.5798 10.8183 40.4918C10.9064 40.077 10.9946 39.6999 11.1457 39.3227C11.2339 39.1467 11.322 38.9456 11.4102 38.7947C11.4354 38.7319 11.4731 38.6816 11.4983 38.6187H12.2665C11.9769 39.1719 11.8258 39.7627 11.7628 40.2656C11.7376 40.4667 11.7376 40.6804 11.7376 40.8564C11.7376 41.7113 11.9139 42.2644 11.9139 42.2644H11.5865L11.2968 42.2392L8.38773 42.0632C8.38773 42.0632 8.53885 42.2141 8.62701 42.2644C9.00481 42.6164 9.44559 42.8804 9.92414 43.0564C10.0753 43.0815 10.2138 43.1444 10.3397 43.1695C11.2213 43.3707 12.1658 43.5466 12.8081 43.6346C13.0096 43.6598 13.2488 43.6975 13.4881 43.6975C13.7274 43.6975 13.9541 43.6724 14.2185 43.6346C14.3067 43.6346 14.3697 43.6346 14.4578 43.6095C14.3948 43.5466 14.3697 43.4964 14.3445 43.4335C14.2563 43.2827 14.1933 43.1695 14.143 43.0187C14.1178 42.8678 14.08 42.7547 14.0548 42.6038C14.0296 42.453 14.0296 42.3398 13.9918 42.2267V42.0255C13.9918 41.5604 14.1052 41.2084 14.1052 41.2084C14.3067 41.7113 14.5712 42.1764 14.8734 42.5535C15.3394 43.1444 15.9313 43.6346 16.5483 44.0495L21.9006 47.4312L21.6613 47.6951L20.7168 47.2803L19.596 46.8152C19.2685 46.6643 18.9537 46.614 18.6263 46.614C18.0973 46.614 17.5684 46.79 17.1528 47.1169H17.1276C17.1276 47.1169 17.0395 47.2049 17.0143 47.23C16.9891 47.2552 16.9261 47.2929 16.901 47.318C16.901 47.3432 16.8758 47.3432 16.8758 47.3809C16.6995 47.5569 16.5483 47.7329 16.4602 47.9717L16.435 47.9969C16.435 47.9969 16.372 48.11 16.372 48.1729C16.3468 48.198 16.3468 48.2608 16.3091 48.286V48.3488L16.2839 48.374C16.1327 48.9271 16.0446 49.518 15.9942 50.1088V50.9637C15.9942 51.2528 16.0194 51.5168 16.0824 51.8185C16.1705 52.5225 16.4098 53.2013 16.7246 53.7922C16.8128 53.9053 16.8758 54.031 16.9639 54.1442C17.115 54.383 17.2914 54.6093 17.4677 54.823C18.2359 55.6401 19.2308 56.2059 20.3516 56.5578L20.9057 56.7338L19.8478 59.8766L19.8227 59.9018C19.7975 59.9018 19.7597 59.8766 19.7597 59.8766L19.5204 57.727C18.5255 57.375 17.5432 56.8218 16.7498 56.0801C16.6365 55.967 16.5106 55.8413 16.4224 55.7281C15.7423 54.999 15.2512 54.1065 14.949 53.1762C14.8356 52.7991 14.7475 52.4093 14.6845 52.0322C14.4452 50.6871 14.5963 49.3294 14.9238 48.0346C14.949 47.9214 15.0119 47.7957 15.0371 47.6826C15.1001 47.4437 15.1882 47.2174 15.2764 46.9786C15.3645 46.8026 15.4275 46.6015 15.5157 46.3877C15.5786 46.2997 15.6038 46.2117 15.6668 46.1237C15.7298 45.9729 15.8179 45.8346 15.9061 45.6586C15.9313 45.6335 15.9313 45.5958 15.969 45.5706C15.9942 45.4826 16.0572 45.3946 16.1202 45.3066H16.032L15.4779 44.8415C15.3268 44.9043 15.0623 44.9546 14.7978 45.0175C14.7349 45.0175 14.6845 45.0426 14.6215 45.0426C14.5334 45.0426 14.42 45.0678 14.3319 45.0678C14.1556 45.0678 14.0044 45.0678 13.8281 45.0426C13.74 45.0426 13.6518 45.0426 13.5637 45.0175C13.3874 45.0175 13.2362 44.9923 13.0977 44.9546C12.8962 44.9295 12.7199 44.8918 12.5436 44.8666C12.4806 44.8666 12.4303 44.8415 12.3673 44.8415C12.3925 45.0175 12.4303 45.1935 12.4303 45.3443C12.4303 45.4323 12.4303 45.5203 12.4051 45.5832C12.3421 46.5512 11.9013 47.2552 11.2339 47.6951C11.2087 47.7203 11.1709 47.758 11.1205 47.758C11.0072 47.846 10.8812 47.9089 10.7427 47.934C10.5412 48.022 10.3271 48.0849 10.1005 48.11C9.92414 48.1351 9.72264 48.1351 9.54634 48.1351H9.52115C9.14334 48.1351 8.70257 48.11 8.28698 47.9843C4.87414 46.9534 3.31254 43.0187 3.31254 43.0187C3.28735 43.2575 3.31254 43.5215 3.37551 43.8358C3.4007 43.9489 3.43848 44.0998 3.46366 44.2129C3.48885 44.3261 3.52663 44.4518 3.55182 44.5649C3.75331 45.2438 4.01778 45.9729 4.25706 46.6266C4.49633 47.2677 4.69783 47.7957 4.78598 48.1854C5.60456 51.5042 6.96466 53.767 8.34995 55.087C8.6396 55.3762 8.94185 55.615 9.2315 55.8539C11.2591 57.5007 14.4074 57.6138 14.4074 57.6138L9.25668 57.6767L8.96703 63.0823H7.55656L7.49359 55.8916C5.60456 54.1819 4.25705 51.7179 3.46366 48.4871C3.37551 48.2231 3.1992 47.6951 2.9977 47.1672C2.38062 45.4323 1.87688 44.0244 1.93985 42.9432L2.05319 41.2713C1.96503 41.0701 1.90207 40.8941 1.81391 40.6804C1.81391 40.6553 1.78872 40.6176 1.78872 40.5673C1.17164 38.9833 0.466404 36.6953 1.6376 35.1868L1.75094 35.0359C2.10356 34.5708 2.45618 34.1308 3.0103 33.8291C3.60219 33.5023 4.18149 33.3263 4.81117 33.3263C5.36528 33.3263 5.93199 33.4771 6.39795 33.7663C5.86903 32.1194 5.78087 30.9503 6.13349 30.0075C6.48611 29.1275 7.2795 28.4486 8.07289 27.8326L8.13586 27.8075L8.16105 27.7824C8.36254 27.6315 8.60182 27.5184 8.86628 27.4304C9.04259 27.3675 9.2189 27.3424 9.33224 27.3172H9.35743C9.35743 27.3172 9.50855 27.2544 9.59671 27.2544C9.71005 27.2544 9.79821 27.2292 9.86117 27.2292H10.3019C10.4531 27.2292 10.6294 27.2544 10.8309 27.2921H10.982C11.2716 27.3549 11.5991 27.4429 11.9265 27.5309L11.9517 27.5561C12.191 27.6189 12.4554 27.7321 12.7451 27.8452C12.5058 26.1732 12.3925 24.1996 12.4806 22.1127C12.5058 21.5219 12.6317 20.9688 12.8584 20.4408L12.5058 19.1208C11.6495 15.802 11.2716 14.042 11.2465 12.3952C11.2213 12.1061 11.2465 11.8421 11.3094 11.5781L10.9568 10.409C10.1886 7.90729 9.83599 3.26851 13.3118 1.77254C13.9541 1.4834 14.7852 1.30741 15.5157 1.30741C16.901 1.30741 17.9336 1.94854 18.2233 3.01709C19.2559 6.62502 20.4901 17.2351 20.5153 18.7311L20.9561 27.7824C21.2835 27.5184 21.5732 27.2292 21.9006 26.9904C22.4925 23.6087 22.9333 21.9619 23.6133 20.3528C23.9407 19.5859 24.3437 18.9197 24.7845 18.2911L24.8097 17.21C24.8978 14.218 25.4016 11.8672 25.8046 10.4215C25.9809 9.86839 26.2202 9.36555 26.5098 8.92555L26.5728 7.60558C26.5728 7.36673 26.8624 1.58397 30.8924 1.08112C31.1568 1.01827 31.3583 1.01827 31.5346 1.01827C33.5118 1.01827 34.746 2.09939 34.9223 3.89707C34.9223 4.01021 34.9475 4.13593 34.9475 4.27421C34.9475 4.45021 34.9475 4.68906 34.9223 4.8902L34.8971 4.85248Z" fill="#D80D83"/>
<path d="M5.90643 35.0359C5.81828 34.9479 5.66715 34.8599 5.55381 34.7971C5.46566 34.7719 5.3775 34.7091 5.26416 34.7091C5.17601 34.6839 5.06267 34.6462 4.93673 34.6462C4.91154 34.6211 4.84858 34.6211 4.78561 34.6211C4.69745 34.6211 4.6093 34.6462 4.52114 34.6462C4.45818 34.6462 4.43299 34.6462 4.37002 34.6714C4.30705 34.6714 4.25668 34.6965 4.19371 34.6965C4.0174 34.7594 3.81591 34.8097 3.6396 34.9354C3.57663 34.9605 3.55144 34.9982 3.48847 35.0234C3.2492 35.1994 3.0477 35.4634 2.75805 35.8154C2.73286 35.8405 2.69508 35.9034 2.6699 35.9285C2.4684 36.1925 2.38024 36.5445 2.34246 36.8965C2.31728 37.2233 2.34246 37.5376 2.36765 37.8645C2.54396 38.9456 3.00992 39.9764 3.07289 40.1901C3.42551 41.221 3.95444 42.1261 4.57152 43.0438C4.72264 43.2449 4.86117 43.4209 5.01229 43.6346C5.12563 43.7855 5.21379 43.9238 5.33972 44.0746C5.42788 44.1878 5.51603 44.3135 5.60419 44.4015C5.7805 44.6655 5.95681 44.9043 6.1583 45.1306C6.18349 45.1935 6.22127 45.2438 6.24646 45.2815C6.27164 45.3192 6.30943 45.3695 6.33461 45.3946C6.42277 45.5078 6.51092 45.6335 6.62426 45.7215C6.68723 45.7843 6.71242 45.8346 6.77539 45.8975C7.41766 46.5763 8.03474 47.0163 8.6896 47.1043C8.84072 47.1043 8.97925 47.1294 9.10519 47.1294C9.74746 47.1294 10.2764 46.8906 10.6038 46.5386C10.6038 46.5135 10.629 46.5135 10.629 46.5135C10.7172 46.4255 10.8053 46.3123 10.8683 46.1866C10.8935 46.1237 10.9312 46.0357 10.9564 45.9855C10.9816 45.9352 11.0194 45.8723 11.0194 45.7843C11.1957 45.1055 10.8179 44.3512 9.72227 44.0495C9.69708 44.0244 9.63412 44.0244 9.57115 43.9866H9.42003C9.33187 43.9866 9.21853 43.9866 9.13038 44.0118C8.8911 44.0746 8.66441 44.1878 8.45033 44.3009C8.42514 44.3261 8.38736 44.3638 8.33698 44.3889C8.07252 44.5901 7.83324 44.8289 7.65693 45.0678C7.63175 45.0929 7.59397 45.1306 7.56878 45.1558L7.24135 45.0049L7.03985 44.8918C7.06504 44.7786 7.15319 44.6278 7.3295 44.3889C7.41766 44.2758 7.531 44.0998 7.68212 43.9238C7.70731 43.9238 7.70731 43.8986 7.70731 43.8986C7.85843 43.7478 8.03474 43.5718 8.21105 43.3707C7.24135 42.8175 6.38499 42.1135 6.03237 40.9947C5.94421 40.7056 5.85606 40.3787 5.83087 40.0016V39.6244C5.83087 39.5113 5.83087 39.3604 5.85606 39.2096C5.85606 39.1216 5.88124 39.0336 5.91903 38.9204C5.91903 38.8324 5.94421 38.7193 5.98199 38.6313C6.04496 38.5182 6.07015 38.3925 6.09534 38.2793C6.12052 38.2165 6.1583 38.1662 6.18349 38.1033C6.24646 37.9902 6.29683 37.8645 6.38499 37.7513C6.41017 37.6885 6.44795 37.6382 6.49833 37.5753C6.61167 37.4245 6.76279 37.2485 6.9391 37.0725C7.11541 36.9216 7.31691 36.7833 7.55618 36.6325C7.531 36.6073 7.49322 36.5696 7.46803 36.5445C7.09022 36.0165 6.32202 35.4005 5.88125 35.0485L5.90643 35.0359Z" fill="#D80D83"/>
<path d="M62.5532 45.2564L55.5512 29.5424H47.8691L59.7322 54.5088H65.3741L77.1995 29.5424H69.5552L62.5532 45.2564Z" fill="#D80D83"/>
<path d="M124.84 28.8132C117.07 28.8132 110.748 34.7217 110.748 42.0256C110.748 49.3294 117.07 55.2379 124.84 55.2379C130.872 55.2379 136.023 51.6802 138.026 46.7146H130.293C128.946 48.0597 126.994 48.9523 124.853 48.9523C121.503 48.9523 118.644 46.8403 117.763 43.9238H138.806C138.92 43.3078 138.958 42.6667 138.958 42.013C138.958 41.0702 138.869 40.1273 138.668 39.2473C137.32 33.2509 131.666 28.7881 124.865 28.7881L124.84 28.8132ZM118.077 39.2725C119.198 36.8085 121.818 35.0988 124.84 35.0988C127.863 35.0988 130.495 36.8085 131.641 39.2725H118.077Z" fill="#D80D83"/>
<path d="M94.8039 28.8132C91.983 28.8132 89.3887 29.668 87.2478 31.1011V21.6476L80.334 23.8224V54.5213H86.8952L86.9204 52.7236C89.1243 54.3076 91.8697 55.2504 94.8039 55.2504C102.222 55.2504 108.254 49.3168 108.254 42.0381C108.254 34.7593 102.222 28.8257 94.8039 28.8257V28.8132ZM94.1869 48.902C90.3081 48.902 87.1597 45.822 87.1597 42.0255C87.1597 38.229 90.3081 35.1239 94.1869 35.1239C98.0657 35.1239 101.189 38.2039 101.189 42.0255C101.189 45.8472 98.0405 48.902 94.1869 48.902Z" fill="#D80D83"/>
<path d="M155.946 35.4508V29.5423H148.918V21.6099L141.854 23.8098V42.0255C141.854 49.3042 147.206 55.2378 155.001 55.2378H155.946V48.9522C152.067 48.9522 148.918 45.8346 148.918 42.0255V35.4508H155.946Z" fill="#D80D83"/>
<path d="M160.443 21.5847C160.09 21.5847 159.763 21.4339 159.536 21.2076C159.095 20.7425 159.032 20.0008 159.385 19.4728L162.596 14.834L157.294 14.2809C156.703 14.2557 156.237 13.8409 156.06 13.25C155.859 12.6969 156.035 12.0809 156.438 11.666L164.674 3.94733C164.914 3.74619 165.228 3.59534 165.531 3.59534C165.883 3.59534 166.211 3.74619 166.437 3.97247C166.878 4.43761 166.941 5.17931 166.588 5.7073L163.377 10.3712L168.679 10.8992C169.271 10.9621 169.737 11.3392 169.913 11.93C170.115 12.5209 169.938 13.1369 169.535 13.5517L161.299 21.2453C161.06 21.4842 160.77 21.5973 160.443 21.5973V21.5847Z" fill="#D80D83"/>
</svg>
