<svg width="184" height="64" viewBox="0 0 184 64" fill="none" xmlns="http://www.w3.org/2000/svg">
<path fill-rule="evenodd" clip-rule="evenodd" d="M127.835 62.9699L138.023 21.5518L121.751 23.2372L111.969 62.9699H127.835Z" fill="white"/>
<path fill-rule="evenodd" clip-rule="evenodd" d="M174.032 21.4583C169.304 21.0213 161.972 22.4414 158.29 25.2505C158.228 23.8928 157.947 22.5975 157.588 21.271L143.547 23.0657C144.14 26.9828 143.547 31.368 142.19 37.2047L135.871 62.9701H151.737L158.243 36.6429C159.819 34.3332 162.346 32.8194 164.452 32.8194C167.105 32.8194 167.76 34.7701 166.949 37.9382L160.833 62.9701H176.668L183.517 35.7845C185.186 28.4029 182.784 22.301 174.047 21.4895V21.4583H174.032Z" fill="white"/>
<path fill-rule="evenodd" clip-rule="evenodd" d="M102.592 22.0044L97.5376 33.584C95.681 37.9693 94.0585 42.0736 92.6388 46.0532L92.4516 22.0044H78.1609L66.2885 46.2716L67.5522 21.3958L51.8418 23.4089L54.9932 63.0168H68.9719C68.9719 63.0168 79.5182 41.6211 80.4543 39.1553L80.6103 62.9856H94.901L118.537 21.9576L102.608 22.02L102.592 22.0044Z" fill="white"/>
<path fill-rule="evenodd" clip-rule="evenodd" d="M34.7438 20.9275C31.5923 20.8651 28.5033 21.6142 25.7263 23.0499C27.302 17.9936 28.3785 12.828 28.9401 7.58443C29.0337 6.38277 29.0337 5.11869 29.0025 3.94824L12.3717 5.99262C12.5589 8.67685 12.1533 12.8748 10.0315 21.8951L2.01255 55.0889C1.66932 56.6651 0.748855 59.6927 0 60.8007C6.50568 62.9856 13.3546 64.1092 20.2035 63.9843C25.4143 63.9843 29.5174 63.0012 33.7141 60.551C40.9062 56.353 45.3213 48.7529 47.1935 41.4493C50.6569 27.6849 45.0093 20.9275 34.7282 20.9275H34.7438ZM30.5471 42.136C28.6905 49.8141 26.3503 53.185 22.3408 53.185C21.046 53.2787 19.7199 52.9041 18.6122 52.2643L22.9649 34.0521C24.2286 32.8192 25.8667 32.1014 27.6296 32.0702C31.2335 32.0702 32.4504 34.0521 30.5627 42.136H30.5471Z" fill="white"/>
<path fill-rule="evenodd" clip-rule="evenodd" d="M140.645 8.67691C140.645 3.88588 136.761 0 131.971 0C127.182 0 123.297 3.88588 123.297 8.67691C123.297 13.4679 127.182 17.3538 131.971 17.3538C136.761 17.3538 140.645 13.4679 140.645 8.67691Z" fill="#FFCA05"/>
</svg>
