<svg width="200" height="52" viewBox="0 0 200 52" fill="none" xmlns="http://www.w3.org/2000/svg">
<path fill-rule="evenodd" clip-rule="evenodd" d="M164.769 35.7364C164.769 24.4545 175.692 15.3364 186.923 15.3364C198.154 15.3364 197.385 18.1182 200 21.8273L191.846 27.2364C190.923 25.6909 188.462 24.6091 186.462 24.6091C180.923 24.6091 175.538 30.1727 175.538 35.5818C175.538 40.9909 178.154 41.7636 181.692 41.7636C185.231 41.7636 187.538 40.2182 189.385 38.3636L196 45.1636C191.846 49.1818 186.769 51.1909 181.077 51.1909C171.846 51.1909 165.077 44.3909 165.077 35.7364H164.769ZM154.615 7.29999C154.615 3.5909 157.846 0.809082 161.077 0.809082C164.308 0.809082 166.308 3.28181 166.308 6.21817C166.308 9.15454 163.385 12.7091 160.154 12.7091C156.923 12.7091 154.769 10.2364 154.769 7.29999H154.615ZM153.077 16.1091H163.692L156.769 50.4182H146.154L153.077 16.1091ZM140.462 4.82726H151.077L141.692 50.2636H131.077L140.462 4.82726ZM96.9231 2.81817L85.0769 8.07272L83.5385 16.1091H79.2308L77.2308 25.0727H81.8462C78.9231 38.8273 78.6154 40.5273 78.6154 42.0727C78.6154 47.3273 82.3077 51.0364 87.8462 51.0364C93.3846 51.0364 94.3077 49.8 96.4615 48.1L95.2308 40.2182C94.4615 40.8364 92.7692 41.6091 91.3846 41.6091C90 41.6091 89.5385 40.9909 89.5385 39.6C89.5385 38.2091 89.6923 38.0545 92.3077 24.9182H99.2308L100.923 15.9545H94L96.7692 2.66363L96.9231 2.81817ZM61.6923 15.1818C50.7692 15.1818 39.6923 24.4545 39.6923 35.5818C39.6923 46.7091 39.6923 37.4364 39.8462 38.2091C40.1538 40.3727 41.0769 42.5364 42.4615 44.3909C45.2308 48.4091 50 50.8818 55.6923 50.8818C61.3846 50.8818 66.4615 48.5636 70.4615 45.0091L63.8462 38.0545C61.5385 40.2182 58.7692 41.6091 56 41.6091C53.2308 41.6091 53.0769 41.3 51.8462 40.2182L66.6154 33.5727L77.3846 28.7818C77.2308 26.6182 76.4615 24.3 75.2308 22.2909C72.4615 17.9636 67.5385 15.0273 61.6923 15.0273V15.1818ZM60.9231 24.7636C62.9231 24.7636 64.6154 25.5364 65.6923 26.9273L49.8462 33.8818C50.9231 29.0909 55.8462 24.6091 60.7692 24.6091L60.9231 24.7636ZM100.615 35.7364C100.615 24.4545 111.692 15.3364 122.923 15.3364C134.154 15.3364 133.231 18.1182 135.846 21.8273L127.692 27.2364C126.615 25.6909 124.308 24.6091 122.308 24.6091C116.769 24.6091 111.385 30.1727 111.385 35.5818C111.385 40.9909 114 41.7636 117.538 41.7636C121.077 41.7636 123.385 40.2182 125.231 38.3636L131.846 45.1636C127.692 49.1818 122.615 51.1909 116.923 51.1909C107.692 51.1909 100.923 44.3909 100.923 35.7364H100.615ZM9.38461 4.82726L0 50.5727H20C29.3846 50.5727 37.5385 45.1636 37.5385 36.5091C37.5385 27.8545 34.9231 28.6273 31.3846 26.9273C36.6154 24.6091 40 20.1273 40 14.8727C40 9.61817 35.2308 4.82726 27.8462 4.82726H9.38461ZM18.6154 14.4091H23.8462C26.6154 14.4091 28.1538 15.4909 28.1538 17.1909C28.1538 20.4364 25.2308 22.7545 21.3846 22.7545H16.7692L18.6154 14.2545V14.4091ZM15.2308 31.7182H22C25.2308 31.7182 26.7692 32.8 26.7692 34.8091C26.7692 38.2091 23.5385 40.8364 19.3846 40.8364C19.3846 40.9909 13.2308 40.9909 13.2308 40.9909L15.2308 31.7182Z" fill="white"/>
</svg>
