<svg width="180" height="64" viewBox="0 0 180 64" fill="none" xmlns="http://www.w3.org/2000/svg">
<path d="M118.64 45.3625C113.542 45.3625 109.393 49.512 109.393 54.6812C109.393 59.8505 113.542 63.9999 118.64 63.9999C123.739 63.9999 127.853 59.8153 127.853 54.6812C127.853 49.5472 123.704 45.3625 118.64 45.3625Z" fill="#44AD40"/>
<path d="M137.664 45.3625C132.565 45.3625 128.451 49.512 128.451 54.6812C128.451 59.8505 132.6 63.9999 137.664 63.9999C142.727 63.9999 146.912 59.8153 146.912 54.6812C146.912 49.512 142.763 45.3625 137.664 45.3625Z" fill="#3CAA36"/>
<path d="M42.4413 45.3625C37.3074 45.3625 33.1934 49.512 33.1934 54.6812C33.1934 59.8505 37.3426 63.9999 42.4413 63.9999C47.5399 63.9999 51.654 59.8153 51.654 54.6812C51.654 49.512 47.5047 45.3625 42.4413 45.3625Z" fill="#94D090"/>
<path d="M61.4998 45.3625C56.4364 45.3625 52.2871 49.512 52.2871 54.6812C52.2871 59.8505 56.4364 63.9999 61.4998 63.9999C66.5633 63.9999 70.7477 59.8153 70.7477 54.6812C70.7477 49.512 66.5985 45.3625 61.4998 45.3625Z" fill="#80C77C"/>
<path d="M99.5467 45.3625C94.4481 45.3625 90.334 49.512 90.334 54.6812C90.334 59.8505 94.4832 63.9999 99.5467 63.9999C104.61 63.9999 108.795 59.8153 108.795 54.6812C108.795 49.5472 104.645 45.3625 99.5467 45.3625Z" fill="#59B653"/>
<path d="M80.5233 45.3625C75.3895 45.3625 71.2754 49.512 71.2754 54.6812C71.2754 59.8505 75.4246 63.9999 80.5233 63.9999C85.6219 63.9999 89.736 59.8153 89.736 54.6812C89.736 49.512 85.5868 45.3625 80.5233 45.3625Z" fill="#6CBF68"/>
<path d="M146.63 27.745H130.631V21.5209H139.175C139.386 21.5209 139.562 21.4505 139.703 21.2747C139.844 21.1341 139.914 20.9934 139.914 20.7472V14.0308C139.914 13.6439 139.562 13.3275 139.211 13.3275H130.666V8.15823H145.681C146.138 8.15823 146.384 7.80658 146.384 7.45494V0.773618C146.384 0.597794 146.314 0.386805 146.173 0.28131C145.997 0.105486 145.856 0.0351562 145.645 0.0351562H121.735C121.524 0.0351562 121.348 0.0703211 121.242 0.246145C121.066 0.386805 120.996 0.527464 120.996 0.703288V35.0242C120.996 35.4461 121.313 35.7275 121.664 35.7275H146.56C146.735 35.7275 146.946 35.6923 147.052 35.5165C147.193 35.3758 147.298 35.2352 147.298 35.0242V28.3077C147.368 28.0264 147.017 27.7099 146.665 27.7099L146.63 27.745Z" fill="white"/>
<path d="M63.3297 0.0703125H55.3126C55.1016 0.0703125 54.9258 0.140642 54.7499 0.316466C54.6093 0.457126 54.539 0.63295 54.539 0.843939V18.778L46.7328 0.527455C46.6273 0.281301 46.346 0.0703125 46.0647 0.0703125H35.7267C35.3399 0.0703125 35.0234 0.421961 35.0234 0.773609V35.1297C35.0234 35.5516 35.3399 35.833 35.7267 35.833H43.8494C44.0604 35.833 44.2362 35.7626 44.3768 35.5868C44.5175 35.4461 44.5878 35.3055 44.5878 35.0945V14.8044L53.5896 35.411C53.6951 35.6923 53.9764 35.833 54.2225 35.833H63.2594C63.4352 35.833 63.6462 35.7626 63.7517 35.5868C63.9275 35.4461 63.9978 35.3055 63.9978 35.0945V0.703279C63.9978 0.386796 63.6462 0.0703125 63.2946 0.0703125H63.3297Z" fill="white"/>
<path d="M28.025 0.0703211H18.9529C18.8826 0.0703211 18.7771 0.0703211 18.7068 0.175816C18.6013 0.28131 18.5661 0.35164 18.5661 0.421969V22.4703C18.5661 24.8615 16.597 26.8308 14.2059 26.8308C11.8148 26.8308 9.81051 24.8615 9.81051 22.4703V4.36043V0.386805C9.81051 0.175816 9.66986 0.0351562 9.45888 0.0351562H0.386794C0.316468 0.0351562 0.175816 0.0703211 0.105489 0.140651C0.0351631 0.246145 0 0.316475 0 0.386805V22.4C0 30.2066 6.32936 36.5714 14.1707 36.5714C22.0121 36.5714 28.3063 30.2417 28.3063 22.4V3.02417V0.35164C28.3766 0.246145 28.236 0.0703211 28.025 0.0703211Z" fill="white"/>
<path d="M80.2421 0.773609C80.2421 0.386796 79.8905 0.0703125 79.5388 0.0703125H71.3458C70.959 0.0703125 70.6426 0.421961 70.6426 0.773609V35.0945C70.6426 35.3055 70.7481 35.4813 70.8887 35.5868C71.0294 35.7626 71.2052 35.833 71.381 35.833H79.574C79.785 35.833 79.9608 35.7626 80.0311 35.5868C80.207 35.4461 80.2773 35.3055 80.2773 35.0945V0.773609H80.2421Z" fill="white"/>
<path d="M111.854 16.4923C113.718 14.7692 114.879 12.3077 114.879 9.52966C114.879 4.2901 110.624 0.0351562 105.384 0.0351562H87.5919C87.17 0.0351562 86.9238 0.386805 86.9238 0.738453V35.0593C86.9238 35.2703 86.9942 35.4461 87.1348 35.5516C87.3106 35.7275 87.4513 35.7978 87.6974 35.7978H105.244C111.222 35.7978 116.074 30.945 116.074 24.967C116.074 21.5209 114.386 18.4264 111.854 16.4571V16.4923ZM96.2772 7.20878H103.415C104.822 7.20878 105.982 8.36922 105.982 9.77582C105.982 11.1824 104.822 12.3428 103.415 12.3428H96.2772V7.17362V7.20878ZM103.345 27.2879H96.2772V19.8681H103.345C105.42 19.8681 107.072 21.5209 107.072 23.5604C107.072 25.6 105.42 27.2879 103.345 27.2879Z" fill="white"/>
<path d="M179.824 0.351623C179.683 0.175798 179.507 0.105469 179.296 0.105469H152.432C152.01 0.105469 151.764 0.421952 151.764 0.773601V7.41975C151.764 7.80657 152.08 8.12305 152.432 8.12305H160.871V35.0945C160.836 35.3055 160.871 35.4813 161.047 35.5868C161.223 35.7626 161.363 35.8329 161.574 35.8329H170.048C170.47 35.8329 170.752 35.5165 170.752 35.1296V8.15822H179.332C179.718 8.15822 180 7.80657 180 7.45492V0.808765C180.07 0.632941 180 0.457117 179.824 0.351623Z" fill="white"/>
</svg>
