<svg xmlns="http://www.w3.org/2000/svg" width="238" height="48" fill="none"><path fill="#050506" fill-rule="evenodd" d="M41.742 33.266V14.972h.367c6.601.043 5.933 3.495 5.954 9.492.022 5.156.712 9.492-6.32 8.802m140.161-.238v4.078h-19.33V11.239h8.78v21.79zm-23.925 0v4.078h-19.286V11.239l19.329.022-.065 4.056h-10.484v6.472h7.486v.064h.043l-.043 4.358-7.486.022v6.774zm-52.293-4.703h-8.09l.043 4.358c-.388 1.251-5.307 1.596-6.019-.15-.086-2.115-.086-14.002.173-16.698.194-1.575 5.48-1.77 5.803.194v4.206h8.09c.172-4.379-.281-6.148-3.279-7.766-2.265-1.208-6.321-1.833-10.075-1.553-2.87.259-5.134.604-7.076 2.157-.906.734-1.186 1.122-1.64 2.244-1.013 2.265-1.143 5.35-1.121 9.06.021 3.84.15 6.86 1.273 9.018.345.69.258.582.798 1.186 1.941 2.093 4.638 2.59 7.766 2.87 3.646.259 7.443-.432 9.579-1.446 3.365-1.64 3.775-2.783 3.775-7.68m-90.52-9.405 2.372 8.801h-4.746zm3.688 12.879 1.834 5.307h8.068l-8.78-25.996h-9.6l-8.78 25.996h8.068l1.812-5.307zm91.362-20.56h24.27v4.078h-8.09V36.91h-8.111V15.317h-8.069zm-39.414-.992 8.176 3.43L68.86 37.774l-8.177-3.43zM78.007 0a5.03 5.03 0 0 1 5.026 5.027c0 2.782-2.243 5.048-5.026 5.048a5.055 5.055 0 0 1-5.049-5.048C72.959 2.265 75.225 0 78.008 0M33.242 36.976c4.79.173 12.901.345 17.13-.884 5.652-1.618 6.04-5.566 6.062-11.8.043-6.106-.389-10.528-5.739-12.103-4.034-1.208-12.965-1.208-17.41-.95zM192.625 11.995l37.882 4.25-1.725 15.381c-1.165-2.632-3.797-4.487-6.861-4.487a7.4 7.4 0 0 0-3.753 1.035 8.57 8.57 0 0 0 1.359-4.66c0-4.163-2.891-7.55-6.451-7.55s-6.45 3.387-6.45 7.55c0 1.748.496 3.366 1.359 4.639a7.63 7.63 0 0 0-3.754-1.014c-4.142 0-7.485 3.365-7.485 7.486a7.475 7.475 0 0 0 7.485 7.486c3.042 0 5.674-1.856 6.839-4.488l.518.216c-.971 7.53-.345 5.501-3.128 10.161h-19.891zm35.315 27.074L226.948 48h-9.147c-2.783-4.66-2.157-2.567-3.128-10.096l.431-.216a7.48 7.48 0 0 0 6.817 4.422 7.48 7.48 0 0 0 6.019-3.041" clip-rule="evenodd"/><path fill="#050506" fill-rule="evenodd" d="m201.534 9.686 36.157 12.124L228.91 48H217.8c-2.783-4.66-2.157-2.567-3.128-10.096l.432-.216a7.478 7.478 0 0 0 14.303-3.063c0-4.12-3.344-7.486-7.486-7.486a7.4 7.4 0 0 0-3.754 1.035 8.57 8.57 0 0 0 1.359-4.66c0-4.163-2.891-7.55-6.45-7.55s-6.451 3.387-6.451 7.55c0 1.748.497 3.366 1.36 4.639a7.63 7.63 0 0 0-3.754-1.014c-4.142 0-7.486 3.365-7.486 7.486a7.476 7.476 0 0 0 7.486 7.486c3.042 0 5.674-1.856 6.839-4.488l.517.216c-.971 7.529-.345 5.501-3.128 10.16h-19.761z" clip-rule="evenodd"/><path fill="#050506" d="m4.896 45.929.647 1.898h1.424l-2.352-6.709H2.911l-2.33 6.71h1.38l.626-1.9zM2.803 45l.561-1.64c.13-.41.237-.862.345-1.25h.022c.108.388.215.84.366 1.25l.561 1.64zm8.306 2.805c.431.043 1.014.086 1.79.086 1.424 0 2.59-.302 3.301-.906.69-.582 1.143-1.467 1.143-2.675 0-1.143-.431-1.942-1.143-2.46-.669-.517-1.618-.776-2.977-.776-.777 0-1.532.043-2.114.151zm1.337-5.695c.173-.044.475-.087.906-.087 1.661 0 2.59.863 2.59 2.33 0 1.704-1.036 2.567-2.762 2.567-.28 0-.561 0-.734-.021zm9.169 5.695c.431.043 1.014.086 1.79.086 1.424 0 2.568-.302 3.301-.906.69-.582 1.122-1.467 1.122-2.675 0-1.143-.432-1.942-1.122-2.46-.669-.517-1.618-.776-2.977-.776-.777 0-1.532.043-2.114.151zm1.337-5.695c.173-.044.475-.087.906-.087 1.662 0 2.59.863 2.568 2.33 0 1.704-1.014 2.567-2.74 2.567-.28 0-.561 0-.734-.021zm9.169-.993v6.71h1.337v-6.71zm10.98 5.544c-.345.151-.905.238-1.445.238-1.596 0-2.545-.928-2.545-2.395 0-1.618 1.078-2.48 2.545-2.48.604 0 1.079.129 1.424.258l.302-.97c-.28-.13-.906-.303-1.769-.303-2.222 0-3.883 1.338-3.883 3.538 0 2.05 1.402 3.387 3.71 3.387.863 0 1.554-.172 1.877-.302zm6.084 1.165h1.338v-5.673h2.092v-1.036h-5.5v1.036h2.07zm7.4-6.709v6.71h1.337v-6.71zm9.06-.108c-2.049 0-3.451 1.467-3.451 3.517 0 1.963 1.294 3.408 3.344 3.408 2.006 0 3.495-1.294 3.495-3.538 0-1.898-1.252-3.387-3.388-3.387m-.021.993c1.316 0 2.006 1.186 2.006 2.459 0 1.402-.733 2.502-2.006 2.502-1.294 0-2.028-1.1-2.028-2.459 0-1.38.69-2.502 2.028-2.502m8.888 5.824v-2.394c0-1.1 0-1.985-.065-2.848l.043-.022c.346.756.842 1.575 1.295 2.309l1.898 2.955h1.38v-6.709h-1.229v2.352c0 1.014.022 1.876.108 2.782-.323-.733-.776-1.51-1.251-2.243l-1.877-2.89h-1.51v6.708zm19.502 0h1.316v-2.524c.173.022.388.043.647.043.928 0 1.77-.237 2.287-.711.41-.367.626-.885.626-1.532 0-.626-.28-1.144-.712-1.489-.453-.345-1.165-.539-2.136-.539-.906 0-1.553.065-2.028.151zm1.316-5.76c.13-.021.388-.064.755-.064.928 0 1.489.41 1.489 1.143 0 .798-.604 1.23-1.597 1.23-.28 0-.496 0-.647-.043zm7.831 5.76h1.316v-2.761h.669c.776.022 1.122.302 1.316 1.186.215.82.388 1.381.496 1.575h1.359c-.151-.259-.345-1.035-.561-1.876-.194-.648-.496-1.1-1.014-1.295.669-.237 1.316-.841 1.316-1.704 0-.561-.237-1.036-.625-1.338-.497-.366-1.209-.539-2.266-.539-.755 0-1.51.065-2.006.151zm1.316-5.76c.129-.043.41-.064.82-.064.884 0 1.445.345 1.445 1.078 0 .669-.561 1.1-1.467 1.1h-.798zm12.038 1.79h-2.74v-1.725h2.891v-1.014h-4.228v6.71h4.4v-1.015h-3.063V44.85h2.74zm7.896 3.97 2.502-6.709h-1.402l-1.057 3.063c-.302.82-.561 1.64-.755 2.438-.195-.82-.453-1.618-.734-2.46l-.992-3.04h-1.446l2.352 6.708zm10.484-3.97h-2.74v-1.725h2.913v-1.014h-4.229v6.71h4.38v-1.015h-3.064V44.85h2.74zm5.846 3.97v-2.394c0-1.1 0-1.985-.064-2.848l.043-.022c.345.756.841 1.575 1.294 2.309l1.899 2.955h1.38v-6.709h-1.229v2.352c0 1.014.021 1.876.108 2.782-.324-.733-.777-1.51-1.252-2.243l-1.877-2.89h-1.51v6.708zm10.593 0h1.337v-5.673h2.093v-1.036h-5.501v1.036h2.071zm7.421-6.709v6.71h1.316v-6.71zm9.039-.108c-2.049 0-3.452 1.467-3.452 3.517 0 1.963 1.295 3.408 3.344 3.408 2.006 0 3.495-1.294 3.495-3.538 0-1.898-1.251-3.387-3.387-3.387m-.022.993c1.316 0 2.007 1.186 2.007 2.459 0 1.402-.734 2.502-2.007 2.502-1.272 0-2.027-1.1-2.027-2.459 0-1.38.712-2.502 2.027-2.502m8.91 5.824v-2.394c0-1.1-.021-1.985-.065-2.848l.022-.022c.367.756.841 1.575 1.316 2.309l1.898 2.955h1.36v-6.709h-1.23v2.352c0 1.014.043 1.876.129 2.782a17 17 0 0 0-1.273-2.243l-1.876-2.89h-1.511v6.708z"/></svg>