<svg xmlns="http://www.w3.org/2000/svg" width="78" height="48" fill="none"><path fill="#050506" fill-rule="evenodd" d="M39.595 8.041c3.736.081 6.741 3.168 6.822 6.985 0 3.817-3.086 6.822-6.74 6.985h-.325v8.04h.73c2.275-.162 4.143-.65 5.93-1.543s3.167-1.95 4.223-3.168l.65-.73c2.355-2.68 3.573-6.254 3.492-9.909-.082-8.04-6.823-14.781-14.944-14.7v8.04zM42.193 38.823H37.32c.163-1.219 1.137-1.868 2.437-1.868s2.355.65 2.436 1.867m-2.03 5.441c.73 0 1.462-.081 2.112-.325.325-.081.65-.243.893-.325l.812-.487c-.081-.163-.406-.65-.568-.812-.163-.244-.406-.487-.569-.731a2.5 2.5 0 0 1-.487.325c-.244.08-.406.162-.65.243-1.624.569-4.06.325-4.386-1.786h7.31c.081-1.381 0-2.437-.812-3.493-2.437-3.248-9.178-2.274-9.015 3.005 0 2.924 2.355 4.386 5.36 4.386M15.798 39.878c-.325-3.41 4.873-3.654 5.116-.487.244 3.492-4.873 3.736-5.116.487m2.355 4.386h.406c1.38 0 2.68-.569 3.411-1.3.975-.893 1.462-1.949 1.462-3.41 0-2.68-2.193-4.549-4.873-4.549-.893 0-1.543.081-2.355.406a3.8 3.8 0 0 0-.812.407c-1.95 1.137-2.6 3.736-1.706 5.766.812 1.705 2.518 2.68 4.467 2.68M24.407 40.528c0 2.193 1.3 3.736 3.574 3.736h.406c.974 0 2.355-.487 2.924-1.218.08.081.08.406.162.568 0 .163 0 .488.163.488h2.03v-8.853c-.569-.081-1.95-.081-2.599-.081v4.954c0 1.056-.569 1.624-1.38 1.868-.975.325-1.95.081-2.437-.569-.406-.65-.325-2.03-.325-3.005V35.25c-.244-.081-2.03-.081-2.518-.081zM45.606 35.249v4.304c0 1.462 0 2.518.73 3.493 1.056 1.3 3.412 1.543 4.955.812.406-.162 1.137-.65 1.218-.812l.243 1.056h2.03v-8.853c-.161-.081-2.354-.081-2.517 0v4.467c0 .812-.081 1.3-.487 1.787-.731.73-2.518.893-3.249 0-.406-.406-.406-1.137-.406-1.787v-4.548zM69.564 37.523c.162-.325.73-1.056.893-1.38-.162-.163-.812-.488-1.056-.57-1.95-.811-5.117-.811-6.091 1.138-.406.812-.325 1.949.162 2.599.569.568 1.219.812 2.193 1.055.812.163 2.112.325 2.518.813.162.243.081.568 0 .73-.163.163-.325.244-.569.325-.974.325-2.355 0-3.33-.406-.162-.162-.324-.243-.568-.324l-1.056 1.38c.163.163.812.569 1.056.65 1.3.731 2.761.893 4.223.65.975-.163 1.868-.569 2.274-1.137.569-.731.731-1.706.406-2.518-.812-1.706-3.248-1.624-4.629-2.193-1.218-.568-.244-1.95 2.355-1.218.569.162 1.056.406 1.219.406M8.084 48c1.705 0 3.492-.65 3.98-2.355.243-.569.162-1.3.162-1.95v-8.527H9.708v6.416c0 .812.081 2.518-.081 3.167-.244.813-.894 1.137-1.868 1.3zM58.762 36.548l-.243-1.3c-.244-.08-1.868-.08-2.03 0v8.854h2.517v-2.6c0-2.192-.081-4.791 3.411-4.06l.406-2.193c-.65-.325-1.868-.244-2.517-.081a4.7 4.7 0 0 0-1.219.893c-.081.163-.162.325-.325.487" clip-rule="evenodd"/><path fill="#050506" fill-rule="evenodd" d="M36.103 29.645c.244.162 1.543.325 1.95.325.649.081 1.38.081 2.03.081h-.731v-8.04h.325c-.569.08-1.381-.082-1.95-.163-.568-.162-.974-.406-1.543-.569-.081-.162-.893-.406-2.111-1.705-.488-.487-1.138-1.543-1.381-2.437-.569-1.949-.325-3.817.568-5.522.082-.163.325-.488.325-.569.081-.081.731-.893 1.137-1.218.406-.406.731-.65 1.3-.893.893-.488 2.355-1.056 3.573-.894h-.162V.001c-1.137 0-2.112.08-3.168.325-.65.162-2.192.568-2.599.812-.487.162-1.38.65-1.786.812-.244.244-1.381.893-1.462 1.056-.244.08-.975.73-1.137.893l-.487.487-.975 1.056c-.325.406-1.137 1.38-1.218 1.787-.163.081-.731 1.3-.894 1.624-1.787 3.736-1.787 8.61 0 12.345.163.325.731 1.543.894 1.625.08.325.893 1.38 1.218 1.786l.975 1.056c.324.325 1.218 1.137 1.624 1.38.325.407 2.111 1.3 2.599 1.544.487.244 2.599 1.137 3.086 1.056M10.6 31.026c-1.948.568-1.136 3.33.813 2.842.65-.244 1.218-.974.975-1.787-.163-.65-.894-1.3-1.787-1.056M17.423 0c2.518 0 4.548 2.112 4.548 4.63a4.54 4.54 0 0 1-4.548 4.548c-2.599 0-4.63-2.03-4.63-4.548S14.825 0 17.424 0M5.809 20.873c2.599 0 4.63 2.03 4.63 4.549 0 2.517-2.031 4.548-4.63 4.548a4.54 4.54 0 0 1-4.548-4.548 4.54 4.54 0 0 1 4.548-4.549M10.357 9.665v9.584c-5.28 0-9.584-4.305-9.584-9.584C.773 4.305 5.078 0 10.357 0zM12.875 20.305v-9.584c5.28 0 9.584 4.305 9.584 9.584 0 5.36-4.305 9.665-9.584 9.665zM72.812 0a4.627 4.627 0 0 1 4.63 4.63c0 2.518-2.031 4.548-4.63 4.548a4.54 4.54 0 0 1-4.548-4.548c0-2.518 2.03-4.63 4.548-4.63M61.28 20.873c2.517 0 4.629 2.03 4.629 4.549 0 2.517-2.112 4.548-4.63 4.548a4.54 4.54 0 0 1-4.548-4.548 4.54 4.54 0 0 1 4.549-4.549M65.828 9.665v9.584c-5.28 0-9.584-4.304-9.584-9.584 0-5.36 4.305-9.664 9.584-9.664zM68.346 20.305v-9.584c5.279 0 9.583 4.305 9.583 9.584 0 5.36-4.304 9.665-9.583 9.665z" clip-rule="evenodd"/><path fill="#050506" fill-rule="evenodd" d="M39.433 0c8.203 0 14.944 6.742 14.944 14.945 0 8.284-6.741 15.025-14.944 15.025h-.081v-7.96h.08c3.818 0 6.985-3.167 6.985-7.065 0-3.818-3.167-6.985-6.984-6.985h-.081V0zM39.351 0c-8.203 0-14.944 6.742-14.944 14.945 0 8.284 6.741 15.025 14.944 15.025v-7.96c-3.817 0-6.985-3.167-6.985-7.065 0-3.818 3.168-6.985 6.985-6.985z" clip-rule="evenodd"/></svg>