<svg xmlns="http://www.w3.org/2000/svg" width="71" height="48" fill="none"><path fill="#050506" fill-rule="evenodd" d="M20.92 12.695h.113l9.24 23.211h-7.174l-1.315-3.868h-8.563l2.065-5.221h4.695l-2.14-6.348zM25.953 0h-6.836L14.31 12.094h6.835zM11.68 35.906H4.809L0 48h6.836zM31.55 35.869l5.446-.038V21.934l.713.827c.226.3.414.563.639.864l9.09 12.244h5.182V12.995h-5.37l-.038 13.972c-.714-.638-1.953-2.479-2.63-3.38a215 215 0 0 1-2.628-3.53l-5.259-7.062H31.55zM56.826 17.653l7.85.037c0 1.803.112 10.404-.075 11.418-.601 3.343-4.733 1.878-6.348.225-.375-.413-.338-.488-.864-.676-.45.488-2.44 3.343-2.591 3.906 1.915 2.066 5.258 4.17 9.728 3.38 3.755-.675 5.971-3.304 5.971-7.549V12.958H56.826z" clip-rule="evenodd"/><path fill="#050506" d="M14.798 42.103h-.489l-.225-.638h-1.09l-.224.638h-.489l1.014-2.554h.489zm-.864-.976-.376-1.014c0-.038 0-.113-.037-.188 0 .075 0 .15-.038.188l-.376 1.014zm3.343-.038c0 .714-.376 1.052-1.09 1.052-.676 0-1.051-.338-1.051-1.014v-1.578h.488v1.465c0 .526.188.751.6.751.414 0 .602-.225.602-.713v-1.503h.45zm2.403-1.164h-.788v2.178h-.451v-2.178h-.789v-.376h2.028zm1.465 2.216c-.375 0-.713-.113-.939-.338a1.37 1.37 0 0 1-.338-.94c0-.412.113-.75.338-.976.263-.263.564-.375.977-.375s.713.112.939.375q.338.338.338.902c0 .413-.113.75-.338.976-.263.263-.564.376-.977.376m.038-2.254c-.263 0-.451.075-.601.263a.9.9 0 0 0-.263.676q0 .45.225.676c.15.188.376.263.601.263.263 0 .488-.075.639-.225.15-.188.225-.413.225-.714q0-.45-.225-.676c-.15-.188-.338-.263-.601-.263m3.906 2.216h-.526l-.45-.676a.5.5 0 0 0-.113-.15q-.057-.113-.113-.113c-.038-.037-.075-.075-.113-.075-.075 0-.112-.037-.15-.037h-.188v1.051h-.45V39.55h.9c.114 0 .226.038.339.075.113 0 .188.038.263.113.113.038.15.113.188.225.075.075.075.188.075.3 0 .076 0 .151-.038.226a.8.8 0 0 1-.113.188c-.075.075-.112.113-.187.15-.075.075-.15.075-.263.113a.3.3 0 0 0 .15.075c.038.038.038.075.075.113l.113.112c.037.038.075.076.113.15zm-1.653-2.216v.827H24c.037-.038.112-.075.15-.113l.113-.113c0-.075.037-.112.037-.188 0-.112-.075-.225-.15-.3q-.113-.113-.338-.113zm2.442 2.216h-.489V39.55h.489zm2.403-2.178h-.788v2.178h-.451v-2.178h-.789v-.376h2.028zm5.784 2.178h-.488l-1.314-1.878c0-.037-.038-.075-.076-.15v2.028h-.413V39.55h.526l1.24 1.84c.075.076.112.113.112.15v-1.99h.413zm2.93 0h-.488l-.263-.638h-1.052l-.263.638h-.488l1.014-2.554h.526zm-.864-.976-.376-1.014c-.037-.038-.037-.113-.037-.188-.038.075-.038.15-.038.188l-.375 1.014zm2.817-1.202h-.789v2.178h-.45v-2.178h-.79v-.376h2.029zm.864 2.178h-.45V39.55h.45zm1.803.038c-.413 0-.714-.113-.94-.338-.262-.263-.375-.564-.375-.94 0-.412.15-.75.376-.976.225-.263.563-.375.976-.375.376 0 .676.112.94.375q.337.338.337.902c0 .413-.112.75-.375.976-.226.263-.526.376-.94.376m0-2.254c-.226 0-.451.075-.601.263q-.225.282-.226.676 0 .45.226.676c.15.188.338.263.6.263.264 0 .451-.075.602-.225.15-.188.225-.413.225-.714 0-.3-.075-.526-.188-.676-.15-.188-.375-.263-.638-.263m4.131 2.216h-.488l-1.315-1.878c-.037-.037-.075-.075-.075-.15v2.028h-.45V39.55h.525l1.277 1.84c.038.076.075.113.113.15-.038-.074-.038-.187-.038-.337v-1.653h.451zm2.892 0h-.488l-.225-.638h-1.09l-.225.638h-.488l1.014-2.554h.488zm-.864-.976-.375-1.014c0-.038 0-.113-.038-.188 0 .075 0 .15-.037.188l-.376 1.014zm2.78.976h-1.54V39.55h.45v2.179h1.09zm1.915 0h-1.54V39.55h1.465v.376H51.38v.714h.939v.337h-.939v.752h1.09zm1.54 0V39.55h.789c1.014 0 1.502.413 1.502 1.24 0 .413-.15.713-.413.939-.263.263-.638.375-1.127.375zm.45-2.178v1.803h.376c.3 0 .564-.075.714-.226.188-.15.3-.413.3-.676q0-.9-1.014-.901zm3.87 2.178h-1.54V39.55h1.502v.376h-1.014v.714h.901v.337h-.901v.752h1.051zm.375-.112v-.414c.038.038.075.038.15.076a.3.3 0 0 0 .188.075c.038.037.113.037.188.037.037.038.113.038.188.038.187 0 .3-.038.413-.113a.25.25 0 0 0 .15-.225c0-.075-.038-.113-.075-.188l-.113-.113c-.075-.037-.112-.075-.188-.112-.075-.038-.187-.038-.262-.075-.076-.076-.188-.113-.263-.15a.8.8 0 0 1-.188-.151c-.075-.075-.113-.15-.15-.188-.038-.075-.038-.188-.038-.263 0-.112 0-.225.075-.3a.64.64 0 0 1 .225-.225.9.9 0 0 1 .339-.15c.112 0 .225-.038.337-.038.301 0 .526.037.639.112v.413c-.15-.112-.338-.15-.6-.15h-.189a.3.3 0 0 0-.187.075c-.038 0-.076.038-.113.075a.3.3 0 0 0-.075.15c0 .076.037.113.037.151l.113.113c.075.037.113.075.188.112s.15.075.263.113c.075.038.15.075.263.15.075.038.15.113.225.15.037.076.113.15.15.226.038.075.038.15.038.225a.75.75 0 0 1-.075.338l-.226.226c-.112.037-.188.075-.338.112-.112.038-.225.038-.375.038h-.188c-.038 0-.113-.038-.188-.038s-.15-.037-.188-.037c-.075-.038-.112-.038-.15-.075m4.207-.79c0 .301-.076.527-.263.677-.15.188-.338.263-.639.263-.112 0-.225 0-.3-.038v-.413c.075.075.188.075.3.075.3 0 .45-.225.45-.638v-1.578h.452zm2.178.902h-1.54V39.55h1.465v.376H64v.714h.939v.337h-.94v.752h1.09zm2.591-1.014c0 .714-.375 1.052-1.089 1.052-.713 0-1.051-.338-1.051-1.014v-1.578h.45v1.465c0 .526.188.751.601.751s.601-.225.601-.713v-1.503h.489zm2.667 1.014h-.563l-.526-.939c-.037-.037-.037-.075-.075-.112 0 .037-.038.075-.075.112l-.564.94h-.563l.901-1.278-.826-1.277h.564l.488.864c.037.075.075.113.112.188.038-.075.038-.15.076-.188l.525-.864h.489l-.827 1.277zm-40.15 0h-1.502V39.55h1.464v.376h-1.014v.714h.94v.337h-.94v.752h1.052zm-.188-3.38-.563.563h-.3l.45-.563z"/></svg>