<svg xmlns="http://www.w3.org/2000/svg" width="167" height="48" fill="none"><path fill="#050506" d="M157.254 24.547v.521h5.681v-.52c0-1.616-.886-2.815-2.815-2.815-1.98 0-2.866 1.199-2.866 2.814m0 3.44v.625c0 1.72.886 2.919 2.971 2.919 2.032 0 2.606-.782 3.127-1.772.26-.417.365-.47.834-.26l2.345 1.146c.469.26.469.521.313.938-1.043 2.293-3.544 3.596-6.671 3.596-4.691 0-7.193-2.814-7.193-6.619v-3.804c0-3.7 2.346-6.62 7.193-6.62 4.586 0 6.827 2.92 6.827 6.568v2.553c0 .417-.156.73-.782.73zm-5.837-9.225v3.127c0 .365-.104.521-.469.521h-.521c-2.346 0-3.701 1.095-4.222 2.867v9.068c.052.209-.104.417-.312.417h-3.753c-.208 0-.417-.156-.365-.417V18.866c-.052-.208.157-.416.365-.416h3.44c.365 0 .417.208.417.469v2.189c.781-1.46 2.241-2.867 4.742-2.867.574 0 .678.104.678.521M134.479 29.29v-1.564c-.886-.052-1.72 0-2.606.105-1.668.208-2.554.677-2.554 1.928 0 1.199.782 1.772 2.033 1.772 1.459.052 2.606-.782 3.127-2.241m4.326-5.577v10.632c0 .209-.157.417-.365.417h-3.3360000000000003c-.208.052-.417-.104-.469-.365v-1.772c-.938 1.564-2.658 2.554-4.482 2.502-3.075 0-5.003-1.98-5.003-5.003 0-2.97 1.824-4.743 6.358-5.056.99-.104 1.981-.104 2.971-.052V23.87c0-1.616-.834-2.241-2.241-2.241-1.459 0-1.876.573-2.241 1.511-.157.365-.261.417-.626.313l-3.231-.782c-.313-.104-.365-.313-.313-.521.469-2.345 2.658-4.065 6.567-4.065 4.117 0 6.411 1.928 6.411 5.628m-15.688-5.264c.052.365-.052.678-.417.782l-3.127.886c-.364.157-.573 0-.677-.365-.469-1.459-1.251-2.658-3.388-2.658-2.71 0-3.544 1.772-3.544 4.17v5.472c0 2.398.938 4.17 3.544 4.17 2.293 0 3.179-1.303 3.544-2.92.052-.364.313-.572.678-.416l3.127.99c.365.157.469.417.365.782-.73 3.18-3.023 5.785-7.818 5.785-5.368 0-8.078-3.492-8.078-8.235v-5.784c0-4.795 2.762-8.235 8.078-8.235 4.691-.052 6.879 2.45 7.713 5.577m-31.843-.364c2.085 0 3.387 1.198 4.013 2.97 1.25-1.772 2.71-2.97 4.742-2.97 2.867 0 4.483 2.24 4.483 5.68v10.58c0 .26-.209.417-.522.417h-3.387c-.313 0-.521-.156-.521-.417v-9.85c0-1.46-.678-2.345-1.825-2.345-1.198 0-2.084.99-2.553 2.554v9.641c.052.209-.104.417-.365.417H91.69c-.26 0-.417-.156-.417-.417v-9.85c0-1.46-.626-2.345-1.772-2.345-1.251 0-2.137 1.042-2.554 2.554v9.59c0 .26-.156.468-.365.468h-3.648c-.26 0-.469-.156-.469-.365V18.814c0-.208.156-.417.417-.417h3.492c.208 0 .417.157.417.417v1.877c.99-1.355 2.397-2.606 4.482-2.606M75.222 29.29v-1.564c-.886-.052-1.772 0-2.606.105-1.668.208-2.554.677-2.554 1.928 0 1.199.782 1.772 2.033 1.772 1.459.052 2.606-.782 3.127-2.241m4.325-5.577v10.632a.41.41 0 0 1-.416.417h-3.284c-.208.052-.417-.104-.469-.365v-1.772c-.938 1.564-2.658 2.554-4.482 2.502-3.075 0-5.055-1.98-5.055-5.003 0-2.97 1.876-4.743 6.41-5.056.99-.104 1.98-.104 2.97-.052V23.87c0-1.616-.833-2.241-2.24-2.241-1.46 0-1.876.573-2.241 1.511-.157.365-.313.417-.626.313l-3.231-.782c-.313-.104-.365-.313-.313-.521.47-2.345 2.658-4.065 6.567-4.065 4.117 0 6.41 1.928 6.41 5.628m-16.156-5.472c.104.417 0 .678-.365.782l-3.179.99c-.365.104-.573 0-.73-.417-.468-1.616-1.51-2.502-3.491-2.502-2.971 0-4.013 1.772-4.013 4.17v5.472c0 2.398 1.042 4.17 4.013 4.17 2.501 0 3.804-1.2 3.804-3.7v-.678h-3.335c-.26 0-.417-.157-.417-.47v-3.022c-.052-.26.156-.47.365-.521h7.296c.26 0 .47.156.47.469v4.534c0 4.326-3.18 7.609-8.183 7.609-5.837 0-8.6-3.492-8.6-8.235v-5.784c0-4.795 2.763-8.235 8.6-8.235 4.742-.052 6.931 2.71 7.765 5.368M33.632 29.707c0 6.984-5.16 12.3-13.185 12.3-9.486 0-13.916-5.63-13.916-13.342v-9.33c0-7.713 4.43-13.342 13.916-13.342 7.66 0 11.153 4.378 12.56 8.756.156.678-.052 1.042-.626 1.251l-5.107 1.511c-.626.209-.938 0-1.147-.625-.834-2.606-2.553-4.065-5.68-4.065-4.847 0-6.463 2.866-6.463 6.723v8.86c0 3.857 1.616 6.723 6.463 6.723 4.012 0 6.097-1.876 6.097-5.89v-1.146h-5.316c-.469 0-.73-.26-.73-.782V22.41c0-.469.261-.781.73-.781h11.57c.521 0 .782.26.782.73zM20.968 0H1.215A.6.6 0 0 0 .59.625v28.77C.59 39.66 8.929 48 19.196 48h1.772c10.267 0 18.605-8.339 18.605-18.606V18.606C39.573 8.339 31.235 0 20.968 0"/></svg>