<svg xmlns="http://www.w3.org/2000/svg" width="371" height="48" fill="none"><path fill="#050506" d="M.097 15.562h10.699c4.757 0 6.466.158 7.886.683 2.655 1.288 4.232 3.786 4.232 6.782 0 2.787-.841 4.206-3.68 5.626 2.944.999 4.915 3.785 4.652 6.887 0 4.653-3.68 7.755-8.99 7.755H.123v-4.522h2.13v-18.69H.122zm356.188 23.947c-1.393 1.972-2.918 2.576-4.6 2.576-3.628 0-6.151-2.97-6.151-7.307 0-4.101 2.497-7.019 5.914-7.019 2.787 0 4.022 1.788 4.837 2.944V27.97h4.285v1.814h-2.103V42.27c0 3.68-2.34 5.731-6.493 5.731-2.497 0-4.653-1.078-5.678-2.865-.158-.368-.342-.71-.605-1.499h2.471c.92 1.84 1.972 2.524 3.996 2.524 2.576 0 4.127-1.34 4.127-3.522zm0-5.888c0-1.682-2.05-4.048-4.39-4.048-2.445 0-3.996 2.024-3.996 5.336 0 3.365 1.578 5.389 4.154 5.389 2.208 0 4.232-2.182 4.232-3.97zm-18.138-2.13c.736-1.603 1.13-2.076 1.84-2.733a4.2 4.2 0 0 1 2.76-1.052c.368 0 .868.08 1.63.184v2.235c-.762-.158-1.209-.184-1.603-.184-4.101 0-4.627 4.258-4.627 4.495v7.045h2.602v1.761h-6.966v-1.761h2.208V29.836h-2.26v-1.814h4.442v3.47zm-19.873 4.075c0-4.6 2.839-7.807 6.966-7.807 4.048 0 6.992 3.312 6.992 7.807 0 4.732-2.865 7.965-7.018 7.965-4.154 0-6.94-3.18-6.94-7.965m6.861 6.073c2.865 0 4.626-2.314 4.626-6.152 0-3.575-1.813-5.888-4.626-5.888-2.734 0-4.443 2.313-4.443 6.02 0 3.812 1.683 6.02 4.443 6.02m-11.855-1h2.628v2.577h-2.628zm50.339-26.89c-3.785 0-6.861-3.103-6.861-6.888 0-3.76 3.076-6.861 6.861-6.861s6.887 3.102 6.887 6.86c.027 3.786-3.075 6.888-6.887 6.888m0-12.671c-3.154 0-5.783 2.602-5.783 5.783 0 3.207 2.576 5.81 5.783 5.81 3.155 0 5.783-2.603 5.783-5.81a5.783 5.783 0 0 0-5.783-5.783m.71 1.971c.683 0 1.183.184 1.577.526.368.315.578.789.578 1.34 0 .421-.105.79-.289 1.131-.158.315-.499.526-.946.657v.026c.236.027.368.106.526.184.131.106.21.21.289.316.052.158.131.29.184.447.026.131.079.315.079.5 0 .183.026.367.026.551s.026.368.026.552c.053.184.079.316.105.5q.08.236.237.394h-1.052c-.078-.053-.131-.158-.157-.29-.027-.104-.027-.236-.027-.42 0-.157 0-.341-.052-.525a4 4 0 0 0-.053-.526c-.052-.184-.079-.342-.131-.526a1.1 1.1 0 0 0-.184-.394.7.7 0 0 0-.316-.29c-.131-.078-.341-.105-.552-.105h-2.313v3.023h-.946V3.05zm.21 3.234c.184-.027.368-.106.5-.184a1.1 1.1 0 0 0 .368-.395c.078-.131.131-.368.131-.604 0-.368-.105-.657-.289-.868-.184-.236-.5-.342-.973-.342h-2.366v2.471h1.972c.237-.026.421-.026.657-.078m-54.204 30.124c-.998 4.653-4.758 7.466-9.857 7.466-5.888 0-10.252-4.653-10.252-11.093 0-6.467 4.364-11.093 10.252-11.093 3.233 0 6.335 1.55 8.149 4.363 1.419 2.392 2.26 5.047 2.103 7.887h-15.194c.552 5.494 4.074 5.783 5.047 5.783 1.971.157 3.785-1.262 4.364-3.102zm-5.494-6.177c0-2.392-1.971-4.232-4.232-4.232h-.131c-2.392 0-4.364 1.84-4.758 4.074zm-23.5-4.653c1.419-2.655 2.944-3.785 5.336-3.785.841 0 1.577.131 2.419.29v4.915c-.842-.158-1.683-.29-2.55-.29-2.655-.157-4.916 1.814-5.047 4.364v8.15h2.523v4.074h-9.857V39.22h2.129V26.26h-2.129v-4.074h7.176zm-11.777 13.775h1.814v4.074h-6.624v-2.55c-1.551 1.972-3.917 2.944-6.467 2.944-4.232 0-7.465-2.786-7.465-6.624 0-6.177 7.018-6.86 13.8-7.44 0-3.233-1.13-4.231-3.785-4.231s-3.68 1.288-3.785 3.233v.158l-5.074-.158c.29-4.206 3.681-6.861 8.728-6.861 5.914 0 8.99 2.655 8.99 7.466zm-5.073-5.915c-4.889.42-8.149.815-8.149 3.76 0 1.681 1.42 2.812 3.549 2.812 2.55 0 4.653-1.972 4.758-4.522v-2.024h-.158zm-45.845-11.25h8.439v4.074h-2.13l2.945 12.512 3.548-16.587h5.494l3.523 16.324 2.786-12.197h-2.103V22.24h8.438v4.074h-1.814l-4.521 16.982h-5.625l-3.523-14.642-3.391 14.642h-5.625l-4.679-17.034h-1.814zm-16.297-6.625h6.729l7.728 23.369h2.13v4.495H212.6l-1.813-6.02h-9.858l-1.814 6.02h-6.493v-4.495h2.103zm3.338 5.205-3.68 12.38h7.308zm-16.745 16.77c-.289 1.289-.815 2.261-1.656 3.234-1.682 1.972-4.074 3.102-6.782 3.102-5.783 0-9.858-4.521-9.858-10.988 0-6.177 4.075-10.988 9.28-10.988s9.437 4.075 9.437 11.54h-15.325c.289 3.076.972 4.89 2.392 6.309 1.13.999 2.549 1.577 3.943 1.577 2.392 0 3.916-1.13 5.047-3.68zm-3.075-6.466c0-1.971-.684-3.785-2.103-5.362-.999-.815-2.261-1.42-3.549-1.262-2.655.131-4.916 1.971-5.625 4.521-.158.684-.447 1.42-.447 2.103zm-26.445-16.745h6.02v26.55h2.812v2.55h-8.99v-2.55h3.102V16.692h-2.944zm-23.027 0h5.888V26.55c.841-1.551 3.233-4.653 6.861-4.653 4.784 0 8.464 4.916 8.464 11.093 0 5.783-3.943 10.699-8.464 10.699-3.759 0-5.626-2.55-6.861-4.232v3.97h-6.046v-2.55h2.944V16.85h-2.786zm5.888 20.11c0 3.549 2.655 6.335 6.046 6.624 3.68 0 5.888-3.233 5.888-8.438s-2.392-8.28-5.888-8.28c-3.102 0-6.204 3.364-6.204 6.466zm-35.277-8.333c.972-1.42 2.786-4.364 6.756-4.364 2.812 0 4.363 1.42 4.915 4.364.552-.973 1.131-1.814 1.972-2.629 1.261-1.13 2.786-1.84 4.495-1.84 3.233 0 5.073 2.13 5.073 5.783v13.354h2.944v2.55h-5.888v-14.8c0-2.944-.999-4.363-3.102-4.363-3.68 0-5.652 4.363-5.652 5.888v10.699h3.102v2.55h-6.177v-15.22c0-2.655-.999-3.786-3.102-3.786-3.233 0-5.625 4.075-5.625 6.046v10.541h3.075v2.55h-9.121v-2.55h3.101V24.552h-3.101v-2.55h6.177l.158 4.127zm-8.885 17.323h-6.046v-3.785c-1.393 2.655-4.206 4.232-7.15 4.232-3.523.29-6.625-2.55-6.888-6.046v-.42c0-4.075 3.55-6.047 11.987-6.888l1.946-.131v-2.13c0-2.392-1.814-3.916-4.758-3.916s-4.522.972-5.047 3.785h-3.313a7.6 7.6 0 0 1 2.392-4.364c1.578-1.288 3.68-1.84 5.652-1.84 4.364 0 7.992 1.972 7.992 7.334v11.62h2.944zm-6.046-10.988-1.946.29c-6.492.84-8.595 1.97-8.595 4.678.157 2.392 2.103 4.075 4.363 4.075 3.102-.158 5.783-2.419 6.178-5.494zm-27.26-2.944h9.7v13.8h-3.102v-4.363c-.525.973-1.262 1.814-2.103 2.655-1.814 1.55-4.074 2.392-6.335 2.392-6.467 0-11.514-6.335-11.514-14.484s5.047-14.616 11.383-14.616c3.522-.157 6.624 1.814 8.28 4.758v-4.363h2.97v8.885h-3.101a8.8 8.8 0 0 0-1.578-3.391c-1.42-1.814-3.654-2.944-5.888-3.102-3.365 0-8.438 2.97-8.438 11.54 0 6.782 3.68 11.671 8.438 11.671 3.785-.131 6.887-2.944 7.597-6.624.158-.684.158-1.551.158-2.235h-6.624zm-17.612 6.913c-.973 4.653-4.758 7.466-9.858 7.466-5.888 0-10.252-4.653-10.252-11.093 0-6.467 4.364-11.093 10.252-11.093 3.234 0 6.336 1.55 8.15 4.363 1.419 2.392 2.26 5.047 2.102 7.887H32.403c.526 5.494 4.075 5.783 5.047 5.783 1.972.157 3.786-1.262 4.364-3.102zm-5.336-6.177c0-2.392-1.972-4.232-4.232-4.232h-.132c-2.418 0-4.364 1.84-4.784 4.074zM7.983 20.083v6.756h5.494c1.971.158 3.785-1.262 3.943-3.233v-.29c0-1.813-1.814-3.233-4.364-3.233zm0 11.12v7.623h5.914c2.235.131 4.206-1.42 4.364-3.68v-.158c0-2.392-1.972-3.917-4.916-3.917z"/></svg>