<svg xmlns="http://www.w3.org/2000/svg" width="82" height="98" fill="none"><g clip-path="url(#a)"><path fill="#050506" d="M77.6 35.35c-1.43-1.18-2.9-2.41-3.22-3.58-.33-1.25.35-3.1 1.01-4.89.86-2.32 1.74-4.72.71-6.5-1.05-1.81-3.59-2.25-6.06-2.66-1.86-.32-3.78-.64-4.67-1.53s-1.22-2.81-1.53-4.67c-.42-2.46-.85-5.01-2.66-6.06-1.78-1.03-4.18-.15-6.5.71-1.79.66-3.64 1.34-4.89 1.01-1.17-.31-2.39-1.79-3.58-3.22C44.6 2.01 42.93 0 40.78 0s-3.81 2.01-5.43 3.96c-1.18 1.43-2.41 2.9-3.58 3.22-1.25.34-3.1-.35-4.89-1.01-2.32-.85-4.72-1.74-6.5-.71-1.81 1.05-2.25 3.59-2.66 6.06-.32 1.86-.64 3.78-1.53 4.67s-2.81 1.22-4.67 1.53c-2.46.42-5.01.85-6.06 2.66-1.03 1.78-.15 4.18.71 6.5.66 1.79 1.34 3.64 1.01 4.89-.31 1.17-1.79 2.39-3.22 3.58C2.01 36.96 0 38.63 0 40.78s2.01 3.82 3.96 5.43c1.43 1.18 2.9 2.41 3.22 3.58.33 1.25-.35 3.1-1.01 4.89-.85 2.32-1.74 4.72-.71 6.5 1.05 1.81 3.59 2.25 6.06 2.66 1.86.32 3.78.65 4.67 1.53.03.03.06.08.09.11l-11.91 24a.745.745 0 0 0 .93 1.03l10.1-3.74 3.13 10.31c.09.29.35.5.66.53h.06c.28 0 .54-.16.67-.42l11.36-22.9c.17.01.34.04.49.08 1.17.31 2.39 1.79 3.58 3.22 1.61 1.95 3.28 3.96 5.43 3.96s3.81-2.01 5.43-3.96c1.18-1.43 2.41-2.9 3.58-3.22.15-.04.32-.07.49-.08l11.36 22.9c.13.26.39.42.67.42h.06c.31-.03.57-.24.66-.53l3.13-10.31 10.1 3.74c.29.11.61.03.82-.2a.73.73 0 0 0 .11-.83l-11.91-24s.06-.08.09-.11c.89-.89 2.81-1.22 4.67-1.53 2.46-.42 5.01-.85 6.06-2.66 1.03-1.78.15-4.18-.71-6.5-.66-1.79-1.34-3.64-1.01-4.89.31-1.17 1.79-2.39 3.22-3.58 1.95-1.61 3.96-3.28 3.96-5.43s-2.01-3.82-3.96-5.43M19.42 94.84l-2.81-9.26c-.06-.2-.2-.36-.38-.45a.8.8 0 0 0-.33-.08c-.09 0-.18.02-.26.05l-9.08 3.36 10.56-21.28c.26.86.44 1.87.61 2.87.42 2.46.85 5.01 2.67 6.06 1.78 1.03 4.18.15 6.5-.71.88-.33 1.78-.66 2.62-.87L19.44 94.85zm55.59-6.38-9.08-3.36a.76.76 0 0 0-.59.03c-.19.09-.32.26-.38.45l-2.81 9.26-10.08-20.32c.83.21 1.73.54 2.61.87 2.32.86 4.72 1.74 6.5.71 1.81-1.05 2.25-3.59 2.66-6.05.17-1 .35-2.01.61-2.87zM40.78 71.12c-16.76 0-30.34-13.59-30.34-30.34s13.59-30.34 30.34-30.34 30.34 13.59 30.34 30.34-13.59 30.34-30.34 30.34"/><path fill="#050506" d="M14.89 45.76a.75.75 0 0 1-.74-.63c-.23-1.43-.35-2.89-.35-4.35 0-7.21 2.81-13.98 7.9-19.07s11.87-7.9 19.07-7.9c.41 0 .75.34.75.75s-.34.75-.75.75c-6.8 0-13.2 2.65-18.01 7.46a25.3 25.3 0 0 0-7.46 18.01c0 1.38.11 2.76.33 4.11.07.41-.21.79-.62.86h-.12zM22.24 60.07c-.19 0-.38-.07-.53-.22a27.2 27.2 0 0 1-4.48-5.92c-.2-.36-.07-.82.29-1.02s.82-.07 1.02.29c1.15 2.05 2.57 3.93 4.23 5.59.29.29.29.77 0 1.06-.15.15-.34.22-.53.22"/><path fill="#E6FF99" d="m40.78 22.18 4.24 13.06h13.74l-11.11 8.08 4.24 13.06-11.11-8.08-11.11 8.08 4.24-13.06-11.11-8.08h13.74z"/></g><defs><clipPath id="a"><path fill="#fff" d="M0 0h81.56v97.62H0z"/></clipPath></defs></svg>